<svg xmlns="http://www.w3.org/2000/svg" width="22" height="21" fill="none" viewBox="0 0 22 21"><path fill="#F03FB4" d="M14.0902 9.1875L18.8911 4.6048C19.119 4.38769 19.2471 4.09308 19.2474 3.78577C19.2477 3.47845 19.1201 3.18362 18.8926 2.96613C18.6652 2.74863 18.3565 2.62629 18.0346 2.62602C17.7126 2.62575 17.4038 2.74757 17.1759 2.96468L12.375 7.54738L7.57408 2.96468C7.34623 2.74719 7.0372 2.625 6.71497 2.625C6.39274 2.625 6.08371 2.74719 5.85586 2.96468C5.62801 3.18217 5.5 3.47716 5.5 3.78474C5.5 4.09232 5.62801 4.38731 5.85586 4.6048L10.6568 9.1875L5.85586 13.7702C5.62801 13.9877 5.5 14.2827 5.5 14.5903C5.5 14.8978 5.62801 15.1928 5.85586 15.4103C6.08371 15.6278 6.39274 15.75 6.71497 15.75C7.0372 15.75 7.34623 15.6278 7.57408 15.4103L12.375 10.8276L17.1759 15.4103C17.4038 15.6278 17.7128 15.75 18.035 15.75C18.3573 15.75 18.6663 15.6278 18.8941 15.4103C19.122 15.1928 19.25 14.8978 19.25 14.5903C19.25 14.2827 19.122 13.9877 18.8941 13.7702L14.0902 9.1875Z"/></svg>