<svg xmlns="http://www.w3.org/2000/svg" width="420" height="3" fill="none" viewBox="0 0 420 3"><path stroke="#D61DA2" stroke-width=".8" d="M0 2H65"/><path stroke="#D61DA2" stroke-width=".3" d="M69.85 1.5C69.85 1.85641 69.6577 2.19052 69.3242 2.44066C68.9907 2.69083 68.523 2.85 68 2.85C67.477 2.85 67.0093 2.69083 66.6758 2.44066C66.3423 2.19052 66.15 1.85641 66.15 1.5C66.15 1.14359 66.3423 0.809476 66.6758 0.55934C67.0093 0.309169 67.477 0.15 68 0.15C68.523 0.15 68.9907 0.309169 69.3242 0.55934C69.6577 0.809476 69.85 1.14359 69.85 1.5Z"/><path stroke="#D61DA2" stroke-width=".8" d="M71 2H136"/><path stroke="#D61DA2" stroke-width=".3" d="M140.85 1.5C140.85 1.85641 140.658 2.19052 140.324 2.44066C139.991 2.69083 139.523 2.85 139 2.85C138.477 2.85 138.009 2.69083 137.676 2.44066C137.342 2.19052 137.15 1.85641 137.15 1.5C137.15 1.14359 137.342 0.809476 137.676 0.55934C138.009 0.309169 138.477 0.15 139 0.15C139.523 0.15 139.991 0.309169 140.324 0.55934C140.658 0.809476 140.85 1.14359 140.85 1.5Z"/><path stroke="#D61DA2" stroke-width=".8" d="M142 2H207"/><path stroke="#D61DA2" stroke-width=".8" d="M213 2H278"/><path stroke="#D61DA2" stroke-width=".3" d="M282.85 1.5C282.85 1.85641 282.658 2.19052 282.324 2.44066C281.991 2.69083 281.523 2.85 281 2.85C280.477 2.85 280.009 2.69083 279.676 2.44066C279.342 2.19052 279.15 1.85641 279.15 1.5C279.15 1.14359 279.342 0.809476 279.676 0.55934C280.009 0.309169 280.477 0.15 281 0.15C281.523 0.15 281.991 0.309169 282.324 0.55934C282.658 0.809476 282.85 1.14359 282.85 1.5Z"/><path stroke="#D61DA2" stroke-width=".3" d="M211.85 1.5C211.85 1.85641 211.658 2.19052 211.324 2.44066C210.991 2.69083 210.523 2.85 210 2.85C209.477 2.85 209.009 2.69083 208.676 2.44066C208.342 2.19052 208.15 1.85641 208.15 1.5C208.15 1.14359 208.342 0.809476 208.676 0.55934C209.009 0.309169 209.477 0.15 210 0.15C210.523 0.15 210.991 0.309169 211.324 0.55934C211.658 0.809476 211.85 1.14359 211.85 1.5Z"/><path stroke="#D61DA2" stroke-width=".8" d="M284 2H349"/><path stroke="#D61DA2" stroke-width=".3" d="M353.85 1.5C353.85 1.85641 353.658 2.19052 353.324 2.44066C352.991 2.69083 352.523 2.85 352 2.85C351.477 2.85 351.009 2.69083 350.676 2.44066C350.342 2.19052 350.15 1.85641 350.15 1.5C350.15 1.14359 350.342 0.809476 350.676 0.55934C351.009 0.309169 351.477 0.15 352 0.15C352.523 0.15 352.991 0.309169 353.324 0.55934C353.658 0.809476 353.85 1.14359 353.85 1.5Z"/><path stroke="#D61DA2" stroke-width=".8" d="M355 2H420"/></svg>