<svg id="Layer_1" data-name="Layer 1" xmlns="http://www.w3.org/2000/svg" viewBox="0 0 338.74 365.62"><defs><style>.cls-1{fill:none;stroke:#cdc82b;}.cls-1,.cls-2,.cls-3,.cls-4,.cls-5,.cls-6{stroke-miterlimit:10;}.cls-2{fill:#fff;}.cls-2,.cls-3,.cls-4,.cls-5,.cls-6{stroke:#231f20;}.cls-3{fill:#f2ea26;}.cls-4{fill:#f4efef;}.cls-5{fill:#3a55a5;}.cls-6{fill:#b34d9d;}</style></defs><path class="cls-1" d="M382,274.14h25.25s-37.34-63.23,15-126.8c0,0-56.35,85.59-12.25,129.1,0,0-31.69,83.1,16.08,108.89" transform="translate(-87.63 -84.92)"/><path class="cls-2" d="M334.54,213.2c11.12-35.63,64-57.75,84-64.94,3.69-1.33,4.77-5.59,2.09-8.26-4.6-4.56-10.36-10.12-11.59-11.31a2.59,2.59,0,0,1-.44-.55c-9.44-15.75-11-29.22-10.47-38.14.23-3.82-4.62-6-7.74-3.49-27.91,22.8-105.63,88.9-116.46,126.52a2.62,2.62,0,0,1-1.76,1.75L90,272.93a2.51,2.51,0,0,0,.06,4.88l174.56,51.7a2.71,2.71,0,0,1,1.42.95c6.74,8.84,77.65,100.63,130.63,119.41a2.78,2.78,0,0,0,3.77-2.25c.69-10.67,4.27-43.63,22.18-60.92a2.46,2.46,0,0,0-1.27-4.2c-18.33-4.66-83.52-22.84-89.19-46.94h0" transform="translate(-87.63 -84.92)"/><ellipse class="cls-2" cx="222.65" cy="189.86" rx="75.46" ry="68.82"/><path class="cls-3" d="M310.28,274.78V206s-65-6-75.46,68.82Z" transform="translate(-87.63 -84.92)"/><path class="cls-4" d="M310.42,274.72l75.46-.13s6.48-59.28-75.6-68.68Z" transform="translate(-87.63 -84.92)"/><path class="cls-5" d="M309.9,273.8l-75.45.77s-5.88,59.34,76.29,68Z" transform="translate(-87.63 -84.92)"/><path class="cls-6" d="M310.42,273.74l1.38,68.81s65.1,4.93,74.06-70.07Z" transform="translate(-87.63 -84.92)"/><polyline class="cls-2" points="68.47 165.89 88.33 189.86 146.81 189.66 88.33 189.86 68.47 212.44"/></svg>