<svg id="Layer_1" data-name="Layer 1" xmlns="http://www.w3.org/2000/svg" viewBox="0 0 263.02 305.6"><defs><style>.cls-1{fill:none;stroke:#cdc82b;}.cls-1,.cls-2,.cls-3,.cls-4,.cls-5,.cls-6{stroke-miterlimit:10;}.cls-2{fill:#fff;}.cls-2,.cls-3,.cls-4,.cls-5,.cls-6{stroke:#231f20;}.cls-3{fill:#f2ea26;}.cls-4{fill:#f4efef;}.cls-5{fill:#3a55a5;}.cls-6{fill:#b34d9d;}</style></defs><path class="cls-1" d="M316.17,243.07h19.6s-29-52.82,11.65-105.92c0,0-43.72,71.5-9.5,107.84,0,0-24.59,69.43,12.48,91" transform="translate(-87.63 -84.92)"/><path class="cls-2" d="M279.32,192.16C288,162.4,329,143.92,344.47,137.92a4.25,4.25,0,0,0,1.62-6.9c-3.57-3.82-8-8.46-9-9.45a2.48,2.48,0,0,1-.34-.46c-7.33-13.16-8.52-24.42-8.12-31.86a3.62,3.62,0,0,0-6-2.92c-21.66,19-82,74.26-90.36,105.69a2.15,2.15,0,0,1-1.37,1.47L89.6,242.06a2.14,2.14,0,0,0,0,4.08l135.45,43.19a2.09,2.09,0,0,1,1.1.79c5.23,7.39,60.25,84.07,101.36,99.76a2.16,2.16,0,0,0,2.92-1.88c.54-8.91,3.32-36.45,17.21-50.9a2.09,2.09,0,0,0-1-3.5c-14.22-3.9-64.8-19.09-69.2-39.22h0" transform="translate(-87.63 -84.92)"/><ellipse class="cls-2" cx="172.87" cy="158.69" rx="58.55" ry="57.49"/><path class="cls-3" d="M260.5,243.61V186.12s-50.43-5-58.55,57.49Z" transform="translate(-87.63 -84.92)"/><path class="cls-4" d="M260.61,243.56l58.55-.11s5-49.52-58.66-57.38Z" transform="translate(-87.63 -84.92)"/><path class="cls-5" d="M260.21,242.79l-58.55.65s-4.56,49.56,59.2,56.84Z" transform="translate(-87.63 -84.92)"/><path class="cls-6" d="M260.61,242.74l1.07,57.48s50.51,4.12,57.47-58.53Z" transform="translate(-87.63 -84.92)"/><polyline class="cls-2" points="53.24 138.67 68.65 158.69 114.03 158.52 68.65 158.69 53.24 177.56"/></svg>