<svg xmlns="http://www.w3.org/2000/svg" width="840" height="189" fill="none" viewBox="0 0 840 189"><path fill="#ED56A2" d="M346.649 122.648L342.791 113.095C328.864 85.5448 317.844 59.0897 325.591 38.9706C336.438 19.3924 350.663 18.841 361.404 23.0016C374.756 30.4073 375.166 35.1306 377.477 43.8429C385.033 38.9295 394.543 32.9303 402.418 35.9625C416.359 41.3299 428.597 56.2065 422.285 72.5999C414.539 92.7191 401.504 93.7375 365.579 114.305L346.649 122.648Z"/><path fill="#F02B8E" d="M346.984 122.148L341.458 110.467L340.123 105.727C325.414 64.195 327.471 60.4508 334.363 40.734C344.713 25.0536 353.927 26.2338 365.002 27.9868C370.794 30.2169 376.202 36.386 377.278 44.4122C383.459 39.1801 390.091 36.1606 396.029 37.0191C406.282 40.9667 419.652 53.9067 413.51 69.8582C405.973 89.435 402.451 86.9516 365.706 113.972L346.984 122.148Z"/><path fill="url(#paint0_linear)" d="M347.306 122.271L340.409 103.747C332.177 64.1217 332.082 66.6502 339.443 47.5308C347.509 31.0752 360.222 30.9607 368.634 31.7471C372.93 33.4012 376.619 38.813 376.818 46.3235C382.002 40.8854 388.752 38.2962 393.269 38.6408C400.873 41.5688 411.662 52.6399 405.664 68.2187C398.303 87.3381 395.165 88.4244 367.362 111.726L347.306 122.271Z"/><path stroke="#FB7CBC" d="M377.959 43.1091L346.813 122.355"/><path fill="#ED56A2" d="M431.714 126.49L424.104 119.547C399.63 100.732 378.251 81.6464 376.532 60.1562C377.843 37.8122 390.43 31.1618 401.914 30.267C417.156 31.1681 419.568 35.2493 425.42 42.105C430.108 34.4064 436.087 24.884 444.499 24.2112C459.389 23.0202 476.859 31.1391 478.259 48.6497C479.978 70.1399 468.666 76.6967 445.172 110.78L431.714 126.49Z"/><path fill="#F02B8E" d="M431.8 125.895L421.765 117.753L418.511 114.058C387.284 82.975 387.519 78.7094 385.204 57.9515C387.753 39.3369 396.571 36.4153 407.314 33.2052C413.501 32.7103 421.045 35.9332 425.487 42.7042C428.797 35.3133 433.47 29.7222 439.195 27.9275C450.147 27.0516 467.799 32.935 469.162 49.9735C470.834 70.8844 466.584 70.169 445.144 110.425L431.8 125.895Z"/><path fill="url(#paint1_linear)" d="M432.144 125.867L417.913 112.149C393.35 79.9833 394.357 82.3045 392.724 61.8821C392.878 43.5567 404.291 37.9541 412.215 35.0244C416.804 34.6573 422.471 37.941 425.899 44.6266C428.221 37.4811 433.187 32.2268 437.408 30.5836C445.531 29.934 460.047 35.2488 461.378 51.8893C463.012 72.3117 460.653 74.6483 445.665 107.684L432.144 125.867Z"/><path stroke="#FB7CBC" d="M425.538 41.2348L431.735 126.156"/><path fill="#fff" d="M28.5889 157.447C28.5889 158.684 28.3447 159.913 27.8564 161.134C27.3682 162.355 26.709 163.486 25.8789 164.527C25.0651 165.569 24.1211 166.48 23.0469 167.262C21.9727 168.043 20.8577 168.605 19.7021 168.946L19.1895 168.092C19.873 167.75 20.4997 167.311 21.0693 166.773C21.639 166.236 22.1273 165.634 22.5342 164.967C22.9411 164.283 23.2503 163.567 23.4619 162.818C23.6898 162.053 23.8037 161.28 23.8037 160.499C23.8037 159.604 23.6735 158.758 23.4131 157.96C23.1527 157.162 22.7702 156.471 22.2656 155.885C21.7611 155.283 21.1344 154.811 20.3857 154.469C19.6533 154.127 18.807 153.956 17.8467 153.956C16.6748 153.956 15.6006 154.184 14.624 154.64C13.6475 155.095 12.7686 155.714 11.9873 156.495C11.2061 157.26 10.5225 158.147 9.93652 159.156C9.36686 160.149 8.88672 161.199 8.49609 162.306C8.12174 163.396 7.83691 164.503 7.6416 165.626C7.44629 166.749 7.34863 167.807 7.34863 168.8C7.34863 169.809 7.45443 170.851 7.66602 171.925C7.8776 172.999 8.18685 174.057 8.59375 175.099C9.00065 176.14 9.50521 177.125 10.1074 178.053C10.7096 178.98 11.4014 179.794 12.1826 180.494C12.9801 181.194 13.859 181.756 14.8193 182.179C15.7959 182.586 16.8538 182.789 17.9932 182.789C18.7744 182.789 19.5312 182.683 20.2637 182.472C21.0124 182.26 21.7285 181.975 22.4121 181.617C23.0957 181.259 23.7386 180.836 24.3408 180.348C24.9593 179.859 25.529 179.33 26.0498 178.761L26.8555 179.542C26.1393 180.486 25.2848 181.397 24.292 182.276C23.3154 183.139 22.2575 183.912 21.1182 184.596C19.9788 185.263 18.7826 185.8 17.5293 186.207C16.2923 186.598 15.0635 186.793 13.8428 186.793C12.6546 186.793 11.5316 186.59 10.4736 186.183C9.43197 185.759 8.47168 185.198 7.59277 184.498C6.71387 183.782 5.92448 182.952 5.22461 182.008C4.54102 181.048 3.95508 180.03 3.4668 178.956C2.99479 177.882 2.62858 176.775 2.36816 175.636C2.12402 174.496 2.00195 173.382 2.00195 172.291C2.00195 170.712 2.26237 169.093 2.7832 167.433C3.32031 165.756 4.05273 164.137 4.98047 162.574C5.9082 160.995 6.9987 159.506 8.25195 158.106C9.52148 156.707 10.8805 155.486 12.3291 154.444C13.7939 153.403 15.3158 152.581 16.8945 151.979C18.4896 151.36 20.0765 151.051 21.6553 151.051C22.6318 151.051 23.5433 151.197 24.3896 151.49C25.236 151.767 25.9684 152.174 26.5869 152.711C27.2054 153.248 27.6937 153.915 28.0518 154.713C28.4098 155.51 28.5889 156.422 28.5889 157.447ZM43.9697 183.839C43.6768 184.295 43.3187 184.71 42.8955 185.084C42.4723 185.442 42.0085 185.751 41.5039 186.012C40.9993 186.272 40.4704 186.476 39.917 186.622C39.3636 186.769 38.8184 186.842 38.2812 186.842C37.5651 186.842 36.9466 186.712 36.4258 186.451C35.9212 186.175 35.5062 185.816 35.1807 185.377C34.8551 184.938 34.611 184.425 34.4482 183.839C34.3018 183.253 34.2285 182.643 34.2285 182.008C34.2285 181.178 34.3506 180.291 34.5947 179.347C34.8551 178.386 35.1969 177.442 35.6201 176.515C36.0596 175.587 36.556 174.724 37.1094 173.927C37.6628 173.129 38.2487 172.47 38.8672 171.949C38.2975 172.324 37.6709 172.617 36.9873 172.828C36.32 173.04 35.6364 173.146 34.9365 173.146C34.432 173.146 33.9925 173.105 33.6182 173.023C33.2438 172.942 32.8288 172.787 32.373 172.56L29.834 177.857L28.7842 177.442L31.4209 172.047C31.1442 171.852 30.8431 171.607 30.5176 171.314C30.2083 171.005 29.9805 170.704 29.834 170.411L33.2275 166.603C33.374 167.042 33.5775 167.49 33.8379 167.945C34.0983 168.385 34.3994 168.784 34.7412 169.142C35.0993 169.483 35.4899 169.768 35.9131 169.996C36.3525 170.224 36.8245 170.338 37.3291 170.338C38.1917 170.338 39.0299 170.183 39.8438 169.874C40.6576 169.549 41.4144 169.158 42.1143 168.702L42.7734 169.361C42.1549 169.931 41.5283 170.566 40.8936 171.266C40.2751 171.949 39.7135 172.682 39.209 173.463C38.7044 174.244 38.2975 175.066 37.9883 175.929C37.679 176.791 37.5244 177.662 37.5244 178.541C37.5244 179.046 37.5895 179.615 37.7197 180.25C37.8662 180.869 38.0859 181.463 38.3789 182.032C38.6719 182.586 39.0381 183.058 39.4775 183.448C39.917 183.823 40.446 184.01 41.0645 184.01C41.4876 184.01 41.8945 183.937 42.2852 183.79C42.6921 183.627 43.0583 183.432 43.3838 183.204L43.9697 183.839ZM63.8184 181.739C63.2487 182.472 62.6221 183.155 61.9385 183.79C61.2712 184.425 60.5387 184.978 59.7412 185.45C58.96 185.922 58.1299 186.297 57.251 186.573C56.3721 186.85 55.4606 186.988 54.5166 186.988C53.3122 186.988 52.2054 186.777 51.1963 186.354C50.1872 185.914 49.3164 185.32 48.584 184.571C47.8516 183.806 47.2819 182.911 46.875 181.886C46.4681 180.844 46.2646 179.729 46.2646 178.541C46.2646 177.564 46.403 176.604 46.6797 175.66C46.9564 174.716 47.347 173.829 47.8516 172.999C48.3561 172.169 48.9502 171.404 49.6338 170.704C50.3337 169.988 51.0986 169.378 51.9287 168.873C52.7588 168.369 53.6377 167.978 54.5654 167.701C55.4932 167.408 56.4453 167.262 57.4219 167.262C58.1055 167.262 58.7484 167.343 59.3506 167.506C59.9691 167.669 60.5143 167.929 60.9863 168.287C61.4583 168.629 61.8327 169.077 62.1094 169.63C62.3861 170.167 62.5244 170.81 62.5244 171.559C62.5244 172.177 62.3372 172.828 61.9629 173.512C61.6048 174.195 61.1247 174.879 60.5225 175.563C59.9365 176.246 59.2692 176.922 58.5205 177.589C57.7718 178.24 57.0068 178.85 56.2256 179.42C55.4606 179.973 54.7201 180.462 54.0039 180.885C53.2878 181.308 52.6611 181.633 52.124 181.861C52.7262 182.61 53.4261 183.22 54.2236 183.692C55.0212 184.164 55.8675 184.4 56.7627 184.4C57.3324 184.4 57.9102 184.295 58.4961 184.083C59.082 183.855 59.6436 183.57 60.1807 183.229C60.734 182.887 61.2549 182.512 61.7432 182.105C62.2477 181.699 62.6953 181.316 63.0859 180.958L63.8184 181.739ZM57.9346 172.462C57.9346 172.088 57.8695 171.73 57.7393 171.388C57.6253 171.046 57.4544 170.753 57.2266 170.509C56.9987 170.248 56.722 170.045 56.3965 169.898C56.0872 169.736 55.7292 169.654 55.3223 169.654C54.5898 169.654 53.9144 169.915 53.2959 170.436C52.6774 170.94 52.1403 171.567 51.6846 172.315C51.2451 173.064 50.8952 173.862 50.6348 174.708C50.3906 175.538 50.2686 176.271 50.2686 176.905C50.2686 177.524 50.3662 178.159 50.5615 178.81C50.7568 179.461 51.0254 180.087 51.3672 180.689C52.0182 180.331 52.7262 179.835 53.4912 179.2C54.2562 178.565 54.9642 177.874 55.6152 177.125C56.2826 176.36 56.8359 175.571 57.2754 174.757C57.7148 173.943 57.9346 173.178 57.9346 172.462ZM86.4502 183.595C86.2549 184.018 86.0107 184.417 85.7178 184.791C85.4248 185.165 85.083 185.499 84.6924 185.792C84.318 186.085 83.903 186.321 83.4473 186.5C83.0078 186.663 82.5439 186.744 82.0557 186.744C80.7699 186.744 79.8421 186.394 79.2725 185.694C78.7191 184.978 78.4424 184.01 78.4424 182.789V182.35C78.1494 182.903 77.8158 183.456 77.4414 184.01C77.0833 184.563 76.6683 185.06 76.1963 185.499C75.7406 185.939 75.2279 186.297 74.6582 186.573C74.0885 186.85 73.4538 186.988 72.7539 186.988C71.696 186.988 70.7601 186.785 69.9463 186.378C69.1325 185.971 68.4489 185.426 67.8955 184.742C67.3421 184.042 66.9271 183.229 66.6504 182.301C66.3737 181.373 66.2354 180.388 66.2354 179.347C66.2354 177.931 66.4795 176.523 66.9678 175.123C67.4723 173.707 68.1722 172.446 69.0674 171.339C69.9788 170.232 71.0612 169.337 72.3145 168.653C73.584 167.953 74.9919 167.604 76.5381 167.604C77.1566 167.604 77.7751 167.661 78.3936 167.774C79.012 167.888 79.598 168.076 80.1514 168.336C80.721 168.58 81.2337 168.906 81.6895 169.313C82.1615 169.719 82.5439 170.216 82.8369 170.802L79.1992 172.34C79.0039 172.031 78.776 171.738 78.5156 171.461C78.2715 171.168 77.9948 170.916 77.6855 170.704C77.3926 170.493 77.0752 170.322 76.7334 170.191C76.3916 170.061 76.0335 169.996 75.6592 169.996C74.8128 169.996 74.056 170.257 73.3887 170.777C72.7376 171.298 72.1761 171.941 71.7041 172.706C71.2484 173.471 70.8984 174.285 70.6543 175.147C70.4102 176.01 70.2881 176.791 70.2881 177.491C70.2881 178.11 70.3451 178.81 70.459 179.591C70.5892 180.356 70.8089 181.08 71.1182 181.764C71.4274 182.447 71.8343 183.025 72.3389 183.497C72.8434 183.969 73.4782 184.205 74.2432 184.205C74.8454 184.205 75.3662 184.075 75.8057 183.814C76.2451 183.538 76.6195 183.188 76.9287 182.765C77.238 182.325 77.4902 181.829 77.6855 181.275C77.8971 180.706 78.0518 180.128 78.1494 179.542C78.2633 178.956 78.3366 178.378 78.3691 177.809C78.418 177.223 78.4424 176.702 78.4424 176.246V174.562L82.8857 172.999V182.911C82.8857 183.237 82.9671 183.538 83.1299 183.814C83.2926 184.075 83.5449 184.205 83.8867 184.205C84.2936 184.205 84.6598 184.059 84.9854 183.766C85.3271 183.456 85.5957 183.147 85.791 182.838L86.4502 183.595ZM98.0713 183.644C97.6969 184.441 97.2656 185.051 96.7773 185.475C96.2891 185.898 95.8089 186.207 95.3369 186.402C94.7998 186.63 94.2464 186.76 93.6768 186.793C92.9443 186.793 92.3421 186.679 91.8701 186.451C91.4144 186.223 91.0482 185.922 90.7715 185.548C90.5111 185.174 90.3239 184.75 90.21 184.278C90.1123 183.806 90.0635 183.326 90.0635 182.838V170.045H87.4756L88.5254 167.604H90.0635V158.961L94.5312 157.398V167.604H99.1699L98.1689 170.045H94.5312V182.96C94.5312 183.351 94.6208 183.66 94.7998 183.888C94.9788 184.116 95.2067 184.238 95.4834 184.254C95.7601 184.254 96.0693 184.148 96.4111 183.937C96.7529 183.725 97.0866 183.383 97.4121 182.911L98.0713 183.644ZM118.506 181.739C117.936 182.472 117.31 183.155 116.626 183.79C115.959 184.425 115.226 184.978 114.429 185.45C113.647 185.922 112.817 186.297 111.938 186.573C111.06 186.85 110.148 186.988 109.204 186.988C108 186.988 106.893 186.777 105.884 186.354C104.875 185.914 104.004 185.32 103.271 184.571C102.539 183.806 101.969 182.911 101.562 181.886C101.156 180.844 100.952 179.729 100.952 178.541C100.952 177.564 101.09 176.604 101.367 175.66C101.644 174.716 102.035 173.829 102.539 172.999C103.044 172.169 103.638 171.404 104.321 170.704C105.021 169.988 105.786 169.378 106.616 168.873C107.446 168.369 108.325 167.978 109.253 167.701C110.181 167.408 111.133 167.262 112.109 167.262C112.793 167.262 113.436 167.343 114.038 167.506C114.657 167.669 115.202 167.929 115.674 168.287C116.146 168.629 116.52 169.077 116.797 169.63C117.074 170.167 117.212 170.81 117.212 171.559C117.212 172.177 117.025 172.828 116.65 173.512C116.292 174.195 115.812 174.879 115.21 175.563C114.624 176.246 113.957 176.922 113.208 177.589C112.459 178.24 111.694 178.85 110.913 179.42C110.148 179.973 109.408 180.462 108.691 180.885C107.975 181.308 107.349 181.633 106.812 181.861C107.414 182.61 108.114 183.22 108.911 183.692C109.709 184.164 110.555 184.4 111.45 184.4C112.02 184.4 112.598 184.295 113.184 184.083C113.77 183.855 114.331 183.57 114.868 183.229C115.422 182.887 115.942 182.512 116.431 182.105C116.935 181.699 117.383 181.316 117.773 180.958L118.506 181.739ZM112.622 172.462C112.622 172.088 112.557 171.73 112.427 171.388C112.313 171.046 112.142 170.753 111.914 170.509C111.686 170.248 111.41 170.045 111.084 169.898C110.775 169.736 110.417 169.654 110.01 169.654C109.277 169.654 108.602 169.915 107.983 170.436C107.365 170.94 106.828 171.567 106.372 172.315C105.933 173.064 105.583 173.862 105.322 174.708C105.078 175.538 104.956 176.271 104.956 176.905C104.956 177.524 105.054 178.159 105.249 178.81C105.444 179.461 105.713 180.087 106.055 180.689C106.706 180.331 107.414 179.835 108.179 179.2C108.944 178.565 109.652 177.874 110.303 177.125C110.97 176.36 111.523 175.571 111.963 174.757C112.402 173.943 112.622 173.178 112.622 172.462ZM163.989 183.155C163.745 183.627 163.436 184.083 163.062 184.522C162.703 184.962 162.288 185.353 161.816 185.694C161.361 186.02 160.872 186.288 160.352 186.5C159.831 186.695 159.294 186.793 158.74 186.793C157.829 186.793 157.031 186.622 156.348 186.28C155.68 185.939 155.111 185.483 154.639 184.913C154.183 184.327 153.841 183.66 153.613 182.911C153.385 182.162 153.271 181.373 153.271 180.543V171.095C153.044 172.136 152.783 173.259 152.49 174.464C152.197 175.652 151.839 176.84 151.416 178.028C150.993 179.2 150.496 180.331 149.927 181.422C149.357 182.512 148.682 183.481 147.9 184.327C147.135 185.157 146.257 185.825 145.264 186.329C144.271 186.817 143.14 187.062 141.87 187.062C140.324 187.062 138.94 186.769 137.72 186.183C136.499 185.597 135.457 184.791 134.595 183.766C133.748 182.74 133.097 181.528 132.642 180.128C132.202 178.712 131.982 177.182 131.982 175.538C131.982 173.585 132.292 171.632 132.91 169.679C133.529 167.709 134.375 165.821 135.449 164.015C136.54 162.208 137.826 160.532 139.307 158.985C140.804 157.439 142.432 156.096 144.189 154.957C145.947 153.818 147.795 152.931 149.731 152.296C151.685 151.661 153.654 151.36 155.64 151.393H155.933V152.491C154.224 152.573 152.58 152.947 151.001 153.614C149.422 154.265 147.941 155.128 146.558 156.202C145.19 157.26 143.937 158.489 142.798 159.889C141.659 161.288 140.682 162.778 139.868 164.356C139.071 165.935 138.444 167.563 137.988 169.239C137.549 170.916 137.329 172.568 137.329 174.195C137.329 174.83 137.37 175.514 137.451 176.246C137.533 176.962 137.671 177.687 137.866 178.419C138.062 179.135 138.314 179.827 138.623 180.494C138.932 181.145 139.315 181.731 139.771 182.252C140.243 182.757 140.788 183.163 141.406 183.473C142.025 183.766 142.733 183.912 143.53 183.912C144.491 183.912 145.361 183.619 146.143 183.033C146.924 182.447 147.632 181.658 148.267 180.665C148.901 179.672 149.463 178.517 149.951 177.198C150.456 175.88 150.895 174.488 151.27 173.023C151.644 171.559 151.953 170.069 152.197 168.556C152.458 167.026 152.661 165.561 152.808 164.161C152.97 162.761 153.084 161.467 153.149 160.279C153.231 159.075 153.271 158.066 153.271 157.252L158.325 155.397V181.349C158.325 181.674 158.358 182 158.423 182.325C158.488 182.651 158.602 182.952 158.765 183.229C158.927 183.489 159.131 183.701 159.375 183.863C159.635 184.026 159.953 184.107 160.327 184.107C160.897 184.107 161.434 183.937 161.938 183.595C162.443 183.253 162.858 182.87 163.184 182.447L163.989 183.155ZM189.038 170.655C189.038 171.16 188.973 171.721 188.843 172.34C188.729 172.942 188.558 173.479 188.33 173.951L182.642 186.158C182.544 186.337 182.406 186.451 182.227 186.5C182.064 186.565 181.885 186.598 181.689 186.598C181.462 186.598 181.242 186.557 181.03 186.476C180.819 186.394 180.672 186.24 180.591 186.012L176.782 172.56L173.389 185.841C173.258 186.118 173.071 186.329 172.827 186.476C172.599 186.622 172.339 186.695 172.046 186.695C171.834 186.695 171.631 186.655 171.436 186.573C171.257 186.492 171.143 186.337 171.094 186.109L166.797 172.389C166.732 172.193 166.642 171.99 166.528 171.778C166.431 171.55 166.3 171.347 166.138 171.168C165.991 170.973 165.82 170.818 165.625 170.704C165.446 170.574 165.234 170.509 164.99 170.509C164.665 170.509 164.364 170.598 164.087 170.777C163.826 170.956 163.59 171.144 163.379 171.339L162.891 170.704C163.135 170.248 163.444 169.825 163.818 169.435C164.193 169.028 164.608 168.67 165.063 168.36C165.519 168.051 165.999 167.807 166.504 167.628C167.025 167.449 167.554 167.359 168.091 167.359C168.547 167.359 168.929 167.49 169.238 167.75C169.548 168.01 169.808 168.328 170.02 168.702C170.231 169.077 170.402 169.475 170.532 169.898C170.679 170.322 170.801 170.704 170.898 171.046C171.387 172.576 171.867 174.114 172.339 175.66C172.827 177.206 173.307 178.736 173.779 180.25L176.196 170.46L175.586 168.507L179.688 167.14L183.691 181.349L185.986 176.1C186.084 175.855 186.165 175.546 186.23 175.172C186.296 174.781 186.328 174.456 186.328 174.195C186.328 173.219 186.076 172.381 185.571 171.681C185.083 170.981 184.424 170.419 183.594 169.996L186.377 166.139C187.288 166.594 187.956 167.213 188.379 167.994C188.818 168.759 189.038 169.646 189.038 170.655ZM209.131 181.739C208.561 182.472 207.935 183.155 207.251 183.79C206.584 184.425 205.851 184.978 205.054 185.45C204.272 185.922 203.442 186.297 202.563 186.573C201.685 186.85 200.773 186.988 199.829 186.988C198.625 186.988 197.518 186.777 196.509 186.354C195.5 185.914 194.629 185.32 193.896 184.571C193.164 183.806 192.594 182.911 192.188 181.886C191.781 180.844 191.577 179.729 191.577 178.541C191.577 177.564 191.715 176.604 191.992 175.66C192.269 174.716 192.66 173.829 193.164 172.999C193.669 172.169 194.263 171.404 194.946 170.704C195.646 169.988 196.411 169.378 197.241 168.873C198.071 168.369 198.95 167.978 199.878 167.701C200.806 167.408 201.758 167.262 202.734 167.262C203.418 167.262 204.061 167.343 204.663 167.506C205.282 167.669 205.827 167.929 206.299 168.287C206.771 168.629 207.145 169.077 207.422 169.63C207.699 170.167 207.837 170.81 207.837 171.559C207.837 172.177 207.65 172.828 207.275 173.512C206.917 174.195 206.437 174.879 205.835 175.563C205.249 176.246 204.582 176.922 203.833 177.589C203.084 178.24 202.319 178.85 201.538 179.42C200.773 179.973 200.033 180.462 199.316 180.885C198.6 181.308 197.974 181.633 197.437 181.861C198.039 182.61 198.739 183.22 199.536 183.692C200.334 184.164 201.18 184.4 202.075 184.4C202.645 184.4 203.223 184.295 203.809 184.083C204.395 183.855 204.956 183.57 205.493 183.229C206.047 182.887 206.567 182.512 207.056 182.105C207.56 181.699 208.008 181.316 208.398 180.958L209.131 181.739ZM203.247 172.462C203.247 172.088 203.182 171.73 203.052 171.388C202.938 171.046 202.767 170.753 202.539 170.509C202.311 170.248 202.035 170.045 201.709 169.898C201.4 169.736 201.042 169.654 200.635 169.654C199.902 169.654 199.227 169.915 198.608 170.436C197.99 170.94 197.453 171.567 196.997 172.315C196.558 173.064 196.208 173.862 195.947 174.708C195.703 175.538 195.581 176.271 195.581 176.905C195.581 177.524 195.679 178.159 195.874 178.81C196.069 179.461 196.338 180.087 196.68 180.689C197.331 180.331 198.039 179.835 198.804 179.2C199.569 178.565 200.277 177.874 200.928 177.125C201.595 176.36 202.148 175.571 202.588 174.757C203.027 173.943 203.247 173.178 203.247 172.462ZM223.413 179.762C223.413 180.771 223.226 181.715 222.852 182.594C222.477 183.473 221.965 184.238 221.313 184.889C220.679 185.54 219.914 186.052 219.019 186.427C218.14 186.801 217.188 186.988 216.162 186.988C215.723 186.988 215.243 186.948 214.722 186.866C214.217 186.785 213.713 186.663 213.208 186.5C212.703 186.337 212.223 186.134 211.768 185.89C211.328 185.646 210.962 185.353 210.669 185.011L213.55 181.251C213.745 181.56 213.981 181.902 214.258 182.276C214.551 182.634 214.868 182.968 215.21 183.277C215.568 183.587 215.942 183.847 216.333 184.059C216.74 184.254 217.147 184.352 217.554 184.352C218.026 184.352 218.465 184.27 218.872 184.107C219.295 183.945 219.661 183.717 219.971 183.424C220.28 183.115 220.524 182.757 220.703 182.35C220.882 181.943 220.972 181.495 220.972 181.007C220.972 180.356 220.744 179.762 220.288 179.225C219.849 178.671 219.32 178.142 218.701 177.638C218.099 177.117 217.464 176.588 216.797 176.051C216.146 175.497 215.617 174.895 215.21 174.244L212.671 177.955L211.719 177.247L214.648 173.194C214.421 172.722 214.242 172.226 214.111 171.705C213.981 171.184 213.916 170.663 213.916 170.143C213.916 169.703 213.989 169.239 214.136 168.751C214.282 168.263 214.494 167.815 214.771 167.408C215.047 167.001 215.381 166.668 215.771 166.407C216.178 166.131 216.642 165.992 217.163 165.992C217.668 165.992 218.091 166.147 218.433 166.456C218.791 166.765 218.97 167.197 218.97 167.75C218.97 168.043 218.921 168.336 218.823 168.629C218.726 168.922 218.604 169.215 218.457 169.508C218.311 169.801 218.148 170.086 217.969 170.362C217.79 170.623 217.619 170.867 217.456 171.095C217.847 171.648 218.27 172.128 218.726 172.535C219.181 172.942 219.629 173.325 220.068 173.683C220.508 174.041 220.931 174.399 221.338 174.757C221.745 175.115 222.095 175.522 222.388 175.978C222.697 176.433 222.941 176.962 223.12 177.564C223.315 178.167 223.413 178.899 223.413 179.762ZM217.871 168.189C217.871 167.962 217.79 167.791 217.627 167.677C217.48 167.563 217.31 167.506 217.114 167.506C216.838 167.506 216.642 167.604 216.528 167.799C216.414 167.978 216.357 168.181 216.357 168.409C216.357 168.735 216.406 169.052 216.504 169.361C216.618 169.671 216.756 169.964 216.919 170.24C216.984 170.126 217.065 169.98 217.163 169.801C217.277 169.622 217.383 169.435 217.48 169.239C217.594 169.028 217.684 168.832 217.749 168.653C217.83 168.458 217.871 168.303 217.871 168.189ZM234.766 187.062C233.561 187.062 232.43 186.85 231.372 186.427C230.33 185.987 229.419 185.385 228.638 184.62C227.873 183.855 227.262 182.96 226.807 181.935C226.367 180.893 226.147 179.762 226.147 178.541C226.147 177.158 226.375 175.864 226.831 174.659C227.287 173.439 227.913 172.34 228.711 171.363C229.525 170.387 230.477 169.54 231.567 168.824C232.674 168.108 233.87 167.547 235.156 167.14L235.864 167.994C235.132 168.531 234.448 169.15 233.813 169.85C233.179 170.533 232.625 171.282 232.153 172.096C231.681 172.893 231.307 173.74 231.03 174.635C230.754 175.514 230.615 176.417 230.615 177.345C230.615 178.126 230.729 178.948 230.957 179.811C231.185 180.673 231.527 181.463 231.982 182.179C232.438 182.895 233.008 183.489 233.691 183.961C234.391 184.417 235.197 184.645 236.108 184.645C236.922 184.645 237.622 184.498 238.208 184.205C238.81 183.912 239.307 183.513 239.697 183.009C240.088 182.504 240.381 181.918 240.576 181.251C240.771 180.567 240.869 179.851 240.869 179.103C240.869 178.224 240.698 177.328 240.356 176.417C240.015 175.489 239.543 174.635 238.94 173.854C238.354 173.072 237.663 172.421 236.865 171.9C236.068 171.38 235.213 171.078 234.302 170.997C234.871 170.346 235.498 169.744 236.182 169.19C236.865 168.637 237.557 168.108 238.257 167.604C239.201 167.913 240.031 168.369 240.747 168.971C241.479 169.573 242.09 170.265 242.578 171.046C243.083 171.827 243.465 172.682 243.726 173.609C243.986 174.521 244.116 175.449 244.116 176.393C244.116 177.678 243.888 178.956 243.433 180.226C242.993 181.495 242.358 182.643 241.528 183.668C240.715 184.677 239.73 185.499 238.574 186.134C237.435 186.752 236.165 187.062 234.766 187.062ZM275.098 183.644C274.723 184.441 274.284 185.051 273.779 185.475C273.275 185.898 272.795 186.207 272.339 186.402C271.802 186.63 271.257 186.76 270.703 186.793C269.971 186.793 269.368 186.679 268.896 186.451C268.441 186.223 268.075 185.922 267.798 185.548C267.521 185.174 267.326 184.75 267.212 184.278C267.114 183.806 267.065 183.326 267.065 182.838V172.608C267.065 172.348 267.017 172.12 266.919 171.925C266.821 171.713 266.691 171.591 266.528 171.559C266.366 171.526 266.17 171.607 265.942 171.803C265.715 171.998 265.47 172.348 265.21 172.853C264.771 174.155 264.372 175.522 264.014 176.954C263.704 178.191 263.42 179.591 263.159 181.153C262.915 182.7 262.777 184.295 262.744 185.939L258.252 187.501V172.608C258.252 172.348 258.203 172.12 258.105 171.925C258.008 171.713 257.869 171.591 257.69 171.559C257.528 171.526 257.332 171.607 257.104 171.803C256.877 171.998 256.641 172.348 256.396 172.853C255.908 174.22 255.485 175.644 255.127 177.125C254.964 177.76 254.81 178.435 254.663 179.151C254.517 179.868 254.386 180.608 254.272 181.373C254.175 182.122 254.093 182.887 254.028 183.668C253.963 184.433 253.939 185.19 253.955 185.939L249.512 187.501V171.095C249.512 170.704 249.422 170.395 249.243 170.167C249.064 169.939 248.828 169.825 248.535 169.825C248.258 169.809 247.949 169.907 247.607 170.118C247.266 170.33 246.932 170.672 246.606 171.144L245.947 170.411C246.322 169.63 246.753 169.028 247.241 168.605C247.746 168.165 248.234 167.848 248.706 167.652C249.243 167.425 249.797 167.294 250.366 167.262C251.082 167.262 251.668 167.376 252.124 167.604C252.596 167.831 252.962 168.133 253.223 168.507C253.499 168.865 253.687 169.28 253.784 169.752C253.898 170.224 253.955 170.704 253.955 171.192V176.344C254.248 174.879 254.688 173.585 255.273 172.462C255.859 171.339 256.47 170.395 257.104 169.63C257.756 168.849 258.39 168.263 259.009 167.872C259.627 167.465 260.124 167.262 260.498 167.262C260.97 167.262 261.353 167.343 261.646 167.506C261.938 167.652 262.166 167.88 262.329 168.189C262.492 168.499 262.598 168.881 262.646 169.337C262.712 169.776 262.744 170.297 262.744 170.899V176.344C263.053 174.879 263.493 173.585 264.062 172.462C264.648 171.339 265.267 170.395 265.918 169.63C266.569 168.849 267.204 168.263 267.822 167.872C268.441 167.465 268.937 167.262 269.312 167.262C270.239 167.262 270.841 167.571 271.118 168.189C271.411 168.792 271.558 169.695 271.558 170.899V182.96C271.558 183.351 271.647 183.66 271.826 183.888C272.005 184.116 272.233 184.238 272.51 184.254C272.786 184.254 273.088 184.148 273.413 183.937C273.755 183.725 274.089 183.383 274.414 182.911L275.098 183.644ZM294.434 181.739C293.864 182.472 293.237 183.155 292.554 183.79C291.886 184.425 291.154 184.978 290.356 185.45C289.575 185.922 288.745 186.297 287.866 186.573C286.987 186.85 286.076 186.988 285.132 186.988C283.927 186.988 282.821 186.777 281.812 186.354C280.802 185.914 279.932 185.32 279.199 184.571C278.467 183.806 277.897 182.911 277.49 181.886C277.083 180.844 276.88 179.729 276.88 178.541C276.88 177.564 277.018 176.604 277.295 175.66C277.572 174.716 277.962 173.829 278.467 172.999C278.971 172.169 279.565 171.404 280.249 170.704C280.949 169.988 281.714 169.378 282.544 168.873C283.374 168.369 284.253 167.978 285.181 167.701C286.108 167.408 287.061 167.262 288.037 167.262C288.721 167.262 289.364 167.343 289.966 167.506C290.584 167.669 291.13 167.929 291.602 168.287C292.074 168.629 292.448 169.077 292.725 169.63C293.001 170.167 293.14 170.81 293.14 171.559C293.14 172.177 292.952 172.828 292.578 173.512C292.22 174.195 291.74 174.879 291.138 175.563C290.552 176.246 289.884 176.922 289.136 177.589C288.387 178.24 287.622 178.85 286.841 179.42C286.076 179.973 285.335 180.462 284.619 180.885C283.903 181.308 283.276 181.633 282.739 181.861C283.341 182.61 284.041 183.22 284.839 183.692C285.636 184.164 286.483 184.4 287.378 184.4C287.948 184.4 288.525 184.295 289.111 184.083C289.697 183.855 290.259 183.57 290.796 183.229C291.349 182.887 291.87 182.512 292.358 182.105C292.863 181.699 293.311 181.316 293.701 180.958L294.434 181.739ZM288.55 172.462C288.55 172.088 288.485 171.73 288.354 171.388C288.241 171.046 288.07 170.753 287.842 170.509C287.614 170.248 287.337 170.045 287.012 169.898C286.702 169.736 286.344 169.654 285.938 169.654C285.205 169.654 284.53 169.915 283.911 170.436C283.293 170.94 282.756 171.567 282.3 172.315C281.86 173.064 281.51 173.862 281.25 174.708C281.006 175.538 280.884 176.271 280.884 176.905C280.884 177.524 280.981 178.159 281.177 178.81C281.372 179.461 281.641 180.087 281.982 180.689C282.633 180.331 283.341 179.835 284.106 179.2C284.871 178.565 285.579 177.874 286.23 177.125C286.898 176.36 287.451 175.571 287.891 174.757C288.33 173.943 288.55 173.178 288.55 172.462ZM331.812 176.905C331.095 178.224 330.225 179.477 329.199 180.665C328.19 181.853 327.059 182.903 325.806 183.814C324.569 184.726 323.226 185.45 321.777 185.987C320.345 186.524 318.84 186.793 317.261 186.793C316.04 186.793 314.852 186.59 313.696 186.183C312.541 185.776 311.507 185.198 310.596 184.449C309.701 183.701 308.976 182.805 308.423 181.764C307.886 180.706 307.617 179.534 307.617 178.248C307.617 176.995 307.869 175.831 308.374 174.757C308.879 173.666 309.53 172.674 310.327 171.778C311.141 170.883 312.052 170.086 313.062 169.386C314.087 168.686 315.12 168.092 316.162 167.604C315.43 167.473 314.771 167.205 314.185 166.798C313.599 166.391 313.102 165.903 312.695 165.333C312.288 164.763 311.979 164.129 311.768 163.429C311.556 162.729 311.45 162.021 311.45 161.305C311.45 160.312 311.629 159.376 311.987 158.497C312.345 157.602 312.826 156.78 313.428 156.031C314.046 155.266 314.762 154.583 315.576 153.98C316.39 153.362 317.244 152.841 318.14 152.418C319.051 151.995 319.979 151.669 320.923 151.441C321.883 151.214 322.811 151.1 323.706 151.1C325.041 151.1 326.261 151.368 327.368 151.905C328.475 152.426 329.451 153.191 330.298 154.2L326.758 156.788C326.416 156.316 326.042 155.877 325.635 155.47C325.244 155.047 324.813 154.689 324.341 154.396C323.885 154.086 323.389 153.842 322.852 153.663C322.331 153.484 321.769 153.395 321.167 153.395C320.418 153.395 319.678 153.533 318.945 153.81C318.229 154.07 317.586 154.444 317.017 154.933C316.447 155.405 315.983 155.974 315.625 156.642C315.283 157.309 315.112 158.041 315.112 158.839C315.112 159.669 315.291 160.442 315.649 161.158C316.007 161.858 316.479 162.468 317.065 162.989C317.651 163.51 318.319 163.917 319.067 164.21C319.832 164.503 320.614 164.649 321.411 164.649C322.323 164.649 323.169 164.503 323.95 164.21L324.316 165.211C322.998 165.634 321.68 166.179 320.361 166.847C319.059 167.498 317.887 168.287 316.846 169.215C315.804 170.143 314.958 171.217 314.307 172.438C313.672 173.658 313.354 175.042 313.354 176.588C313.354 177.483 313.485 178.313 313.745 179.078C314.006 179.843 314.38 180.51 314.868 181.08C315.373 181.65 315.983 182.097 316.699 182.423C317.432 182.748 318.254 182.911 319.165 182.911C320.109 182.911 321.167 182.724 322.339 182.35C323.511 181.959 324.658 181.446 325.781 180.812C326.904 180.177 327.93 179.453 328.857 178.639C329.785 177.825 330.485 176.995 330.957 176.148L331.812 176.905ZM341.943 187.159C341.748 187.159 341.545 187.11 341.333 187.013C341.138 186.931 340.991 186.793 340.894 186.598L334.692 172.657C334.611 172.511 334.513 172.348 334.399 172.169C334.302 171.974 334.18 171.795 334.033 171.632C333.887 171.469 333.724 171.331 333.545 171.217C333.366 171.103 333.179 171.046 332.983 171.046C332.707 171.046 332.471 171.152 332.275 171.363C332.08 171.559 331.901 171.77 331.738 171.998L331.25 171.339C331.413 170.851 331.641 170.387 331.934 169.947C332.243 169.492 332.601 169.093 333.008 168.751C333.415 168.409 333.862 168.133 334.351 167.921C334.839 167.709 335.352 167.604 335.889 167.604C336.296 167.604 336.662 167.742 336.987 168.019C337.313 168.279 337.598 168.605 337.842 168.995C338.102 169.386 338.322 169.793 338.501 170.216C338.696 170.639 338.859 170.997 338.989 171.29C339.771 173.162 340.544 175.017 341.309 176.856C342.09 178.696 342.887 180.527 343.701 182.35L346.753 176.1C346.883 175.872 346.973 175.563 347.021 175.172C347.07 174.781 347.095 174.456 347.095 174.195C347.095 173.235 346.851 172.405 346.362 171.705C345.874 170.989 345.199 170.419 344.336 169.996L347.144 166.139C348.055 166.594 348.722 167.213 349.146 167.994C349.585 168.759 349.805 169.646 349.805 170.655C349.805 171.16 349.74 171.721 349.609 172.34C349.495 172.942 349.325 173.479 349.097 173.951L342.896 186.647C342.651 186.988 342.334 187.159 341.943 187.159ZM369.824 181.739C369.255 182.472 368.628 183.155 367.944 183.79C367.277 184.425 366.545 184.978 365.747 185.45C364.966 185.922 364.136 186.297 363.257 186.573C362.378 186.85 361.466 186.988 360.522 186.988C359.318 186.988 358.211 186.777 357.202 186.354C356.193 185.914 355.322 185.32 354.59 184.571C353.857 183.806 353.288 182.911 352.881 181.886C352.474 180.844 352.271 179.729 352.271 178.541C352.271 177.564 352.409 176.604 352.686 175.66C352.962 174.716 353.353 173.829 353.857 172.999C354.362 172.169 354.956 171.404 355.64 170.704C356.34 169.988 357.104 169.378 357.935 168.873C358.765 168.369 359.644 167.978 360.571 167.701C361.499 167.408 362.451 167.262 363.428 167.262C364.111 167.262 364.754 167.343 365.356 167.506C365.975 167.669 366.52 167.929 366.992 168.287C367.464 168.629 367.839 169.077 368.115 169.63C368.392 170.167 368.53 170.81 368.53 171.559C368.53 172.177 368.343 172.828 367.969 173.512C367.611 174.195 367.131 174.879 366.528 175.563C365.942 176.246 365.275 176.922 364.526 177.589C363.778 178.24 363.013 178.85 362.231 179.42C361.466 179.973 360.726 180.462 360.01 180.885C359.294 181.308 358.667 181.633 358.13 181.861C358.732 182.61 359.432 183.22 360.229 183.692C361.027 184.164 361.873 184.4 362.769 184.4C363.338 184.4 363.916 184.295 364.502 184.083C365.088 183.855 365.649 183.57 366.187 183.229C366.74 182.887 367.261 182.512 367.749 182.105C368.254 181.699 368.701 181.316 369.092 180.958L369.824 181.739ZM363.94 172.462C363.94 172.088 363.875 171.73 363.745 171.388C363.631 171.046 363.46 170.753 363.232 170.509C363.005 170.248 362.728 170.045 362.402 169.898C362.093 169.736 361.735 169.654 361.328 169.654C360.596 169.654 359.92 169.915 359.302 170.436C358.683 170.94 358.146 171.567 357.69 172.315C357.251 173.064 356.901 173.862 356.641 174.708C356.396 175.538 356.274 176.271 356.274 176.905C356.274 177.524 356.372 178.159 356.567 178.81C356.763 179.461 357.031 180.087 357.373 180.689C358.024 180.331 358.732 179.835 359.497 179.2C360.262 178.565 360.97 177.874 361.621 177.125C362.288 176.36 362.842 175.571 363.281 174.757C363.721 173.943 363.94 173.178 363.94 172.462ZM393.506 183.644C393.311 184.067 393.058 184.466 392.749 184.84C392.44 185.214 392.09 185.548 391.699 185.841C391.325 186.134 390.918 186.362 390.479 186.524C390.039 186.703 389.583 186.793 389.111 186.793C387.826 186.793 386.89 186.443 386.304 185.743C385.734 185.027 385.449 184.059 385.449 182.838V172.901C385.449 172.787 385.441 172.657 385.425 172.511C385.425 172.348 385.4 172.202 385.352 172.071C385.303 171.925 385.238 171.803 385.156 171.705C385.075 171.607 384.961 171.559 384.814 171.559C384.359 171.559 383.895 171.835 383.423 172.389C382.967 172.942 382.52 173.658 382.08 174.537C381.657 175.416 381.258 176.401 380.884 177.491C380.526 178.582 380.208 179.664 379.932 180.738C379.655 181.796 379.435 182.789 379.272 183.717C379.126 184.645 379.053 185.385 379.053 185.939L374.609 187.501V171.095C374.609 170.769 374.528 170.476 374.365 170.216C374.202 169.939 373.95 169.801 373.608 169.801C373.201 169.801 372.827 169.955 372.485 170.265C372.16 170.558 371.899 170.851 371.704 171.144L371.045 170.411C371.24 170.004 371.484 169.614 371.777 169.239C372.087 168.849 372.428 168.507 372.803 168.214C373.193 167.921 373.608 167.693 374.048 167.53C374.504 167.351 374.976 167.262 375.464 167.262C376.733 167.262 377.645 167.62 378.198 168.336C378.768 169.036 379.053 169.988 379.053 171.192V179.151C379.199 178.484 379.395 177.727 379.639 176.881C379.899 176.018 380.208 175.147 380.566 174.269C380.924 173.39 381.323 172.535 381.763 171.705C382.218 170.859 382.715 170.11 383.252 169.459C383.789 168.792 384.375 168.263 385.01 167.872C385.645 167.465 386.328 167.262 387.061 167.262C387.826 167.262 388.403 167.433 388.794 167.774C389.185 168.1 389.461 168.523 389.624 169.044C389.803 169.549 389.901 170.11 389.917 170.729C389.933 171.347 389.941 171.941 389.941 172.511V182.96C389.941 183.286 390.023 183.587 390.186 183.863C390.348 184.124 390.601 184.254 390.942 184.254C391.317 184.254 391.667 184.107 391.992 183.814C392.334 183.505 392.603 183.204 392.798 182.911L393.506 183.644ZM405.298 183.644C404.924 184.441 404.492 185.051 404.004 185.475C403.516 185.898 403.035 186.207 402.563 186.402C402.026 186.63 401.473 186.76 400.903 186.793C400.171 186.793 399.569 186.679 399.097 186.451C398.641 186.223 398.275 185.922 397.998 185.548C397.738 185.174 397.55 184.75 397.437 184.278C397.339 183.806 397.29 183.326 397.29 182.838V170.045H394.702L395.752 167.604H397.29V158.961L401.758 157.398V167.604H406.396L405.396 170.045H401.758V182.96C401.758 183.351 401.847 183.66 402.026 183.888C402.205 184.116 402.433 184.238 402.71 184.254C402.987 184.254 403.296 184.148 403.638 183.937C403.979 183.725 404.313 183.383 404.639 182.911L405.298 183.644ZM427.124 185.45L422.07 187.257V152.296L427.124 150.489V185.45ZM453.613 183.644C453.418 184.067 453.166 184.466 452.856 184.84C452.547 185.214 452.197 185.548 451.807 185.841C451.432 186.134 451.025 186.362 450.586 186.524C450.146 186.703 449.691 186.793 449.219 186.793C447.933 186.793 446.997 186.443 446.411 185.743C445.841 185.027 445.557 184.059 445.557 182.838V172.901C445.557 172.787 445.549 172.657 445.532 172.511C445.532 172.348 445.508 172.202 445.459 172.071C445.41 171.925 445.345 171.803 445.264 171.705C445.182 171.607 445.068 171.559 444.922 171.559C444.466 171.559 444.002 171.835 443.53 172.389C443.075 172.942 442.627 173.658 442.188 174.537C441.764 175.416 441.366 176.401 440.991 177.491C440.633 178.582 440.316 179.664 440.039 180.738C439.762 181.796 439.543 182.789 439.38 183.717C439.233 184.645 439.16 185.385 439.16 185.939L434.717 187.501V171.095C434.717 170.769 434.635 170.476 434.473 170.216C434.31 169.939 434.058 169.801 433.716 169.801C433.309 169.801 432.935 169.955 432.593 170.265C432.267 170.558 432.007 170.851 431.812 171.144L431.152 170.411C431.348 170.004 431.592 169.614 431.885 169.239C432.194 168.849 432.536 168.507 432.91 168.214C433.301 167.921 433.716 167.693 434.155 167.53C434.611 167.351 435.083 167.262 435.571 167.262C436.841 167.262 437.752 167.62 438.306 168.336C438.875 169.036 439.16 169.988 439.16 171.192V179.151C439.307 178.484 439.502 177.727 439.746 176.881C440.007 176.018 440.316 175.147 440.674 174.269C441.032 173.39 441.431 172.535 441.87 171.705C442.326 170.859 442.822 170.11 443.359 169.459C443.896 168.792 444.482 168.263 445.117 167.872C445.752 167.465 446.436 167.262 447.168 167.262C447.933 167.262 448.511 167.433 448.901 167.774C449.292 168.1 449.569 168.523 449.731 169.044C449.91 169.549 450.008 170.11 450.024 170.729C450.041 171.347 450.049 171.941 450.049 172.511V182.96C450.049 183.286 450.13 183.587 450.293 183.863C450.456 184.124 450.708 184.254 451.05 184.254C451.424 184.254 451.774 184.107 452.1 183.814C452.441 183.505 452.71 183.204 452.905 182.911L453.613 183.644ZM464.404 187.159C464.209 187.159 464.006 187.11 463.794 187.013C463.599 186.931 463.452 186.793 463.354 186.598L457.153 172.657C457.072 172.511 456.974 172.348 456.86 172.169C456.763 171.974 456.641 171.795 456.494 171.632C456.348 171.469 456.185 171.331 456.006 171.217C455.827 171.103 455.64 171.046 455.444 171.046C455.168 171.046 454.932 171.152 454.736 171.363C454.541 171.559 454.362 171.77 454.199 171.998L453.711 171.339C453.874 170.851 454.102 170.387 454.395 169.947C454.704 169.492 455.062 169.093 455.469 168.751C455.876 168.409 456.323 168.133 456.812 167.921C457.3 167.709 457.812 167.604 458.35 167.604C458.757 167.604 459.123 167.742 459.448 168.019C459.774 168.279 460.059 168.605 460.303 168.995C460.563 169.386 460.783 169.793 460.962 170.216C461.157 170.639 461.32 170.997 461.45 171.29C462.231 173.162 463.005 175.017 463.77 176.856C464.551 178.696 465.348 180.527 466.162 182.35L469.214 176.1C469.344 175.872 469.434 175.563 469.482 175.172C469.531 174.781 469.556 174.456 469.556 174.195C469.556 173.235 469.312 172.405 468.823 171.705C468.335 170.989 467.66 170.419 466.797 169.996L469.604 166.139C470.516 166.594 471.183 167.213 471.606 167.994C472.046 168.759 472.266 169.646 472.266 170.655C472.266 171.16 472.201 171.721 472.07 172.34C471.956 172.942 471.785 173.479 471.558 173.951L465.356 186.647C465.112 186.988 464.795 187.159 464.404 187.159ZM481.079 154.64L479.785 163.551L477.393 164.308L475.928 156.397L481.079 154.64ZM484.448 183.644C484.074 184.441 483.634 185.051 483.13 185.475C482.642 185.898 482.17 186.207 481.714 186.402C481.177 186.63 480.632 186.76 480.078 186.793C479.362 186.793 478.768 186.679 478.296 186.451C477.824 186.223 477.45 185.922 477.173 185.548C476.896 185.174 476.701 184.75 476.587 184.278C476.489 183.806 476.44 183.326 476.44 182.838V169.142L480.933 167.604V182.96C480.933 183.351 481.022 183.66 481.201 183.888C481.38 184.116 481.608 184.238 481.885 184.254C482.178 184.254 482.487 184.148 482.812 183.937C483.154 183.725 483.48 183.383 483.789 182.911L484.448 183.644ZM496.362 183.644C495.988 184.441 495.557 185.051 495.068 185.475C494.58 185.898 494.1 186.207 493.628 186.402C493.091 186.63 492.537 186.76 491.968 186.793C491.235 186.793 490.633 186.679 490.161 186.451C489.705 186.223 489.339 185.922 489.062 185.548C488.802 185.174 488.615 184.75 488.501 184.278C488.403 183.806 488.354 183.326 488.354 182.838V170.045H485.767L486.816 167.604H488.354V158.961L492.822 157.398V167.604H497.461L496.46 170.045H492.822V182.96C492.822 183.351 492.912 183.66 493.091 183.888C493.27 184.116 493.498 184.238 493.774 184.254C494.051 184.254 494.36 184.148 494.702 183.937C495.044 183.725 495.378 183.383 495.703 182.911L496.362 183.644ZM519.751 183.595C519.556 184.018 519.312 184.417 519.019 184.791C518.726 185.165 518.384 185.499 517.993 185.792C517.619 186.085 517.204 186.321 516.748 186.5C516.309 186.663 515.845 186.744 515.356 186.744C514.071 186.744 513.143 186.394 512.573 185.694C512.02 184.978 511.743 184.01 511.743 182.789V182.35C511.45 182.903 511.117 183.456 510.742 184.01C510.384 184.563 509.969 185.06 509.497 185.499C509.041 185.939 508.529 186.297 507.959 186.573C507.389 186.85 506.755 186.988 506.055 186.988C504.997 186.988 504.061 186.785 503.247 186.378C502.433 185.971 501.75 185.426 501.196 184.742C500.643 184.042 500.228 183.229 499.951 182.301C499.674 181.373 499.536 180.388 499.536 179.347C499.536 177.931 499.78 176.523 500.269 175.123C500.773 173.707 501.473 172.446 502.368 171.339C503.28 170.232 504.362 169.337 505.615 168.653C506.885 167.953 508.293 167.604 509.839 167.604C510.457 167.604 511.076 167.661 511.694 167.774C512.313 167.888 512.899 168.076 513.452 168.336C514.022 168.58 514.535 168.906 514.99 169.313C515.462 169.719 515.845 170.216 516.138 170.802L512.5 172.34C512.305 172.031 512.077 171.738 511.816 171.461C511.572 171.168 511.296 170.916 510.986 170.704C510.693 170.493 510.376 170.322 510.034 170.191C509.692 170.061 509.334 169.996 508.96 169.996C508.114 169.996 507.357 170.257 506.689 170.777C506.038 171.298 505.477 171.941 505.005 172.706C504.549 173.471 504.199 174.285 503.955 175.147C503.711 176.01 503.589 176.791 503.589 177.491C503.589 178.11 503.646 178.81 503.76 179.591C503.89 180.356 504.11 181.08 504.419 181.764C504.728 182.447 505.135 183.025 505.64 183.497C506.144 183.969 506.779 184.205 507.544 184.205C508.146 184.205 508.667 184.075 509.106 183.814C509.546 183.538 509.92 183.188 510.229 182.765C510.539 182.325 510.791 181.829 510.986 181.275C511.198 180.706 511.353 180.128 511.45 179.542C511.564 178.956 511.637 178.378 511.67 177.809C511.719 177.223 511.743 176.702 511.743 176.246V174.562L516.187 172.999V182.911C516.187 183.237 516.268 183.538 516.431 183.814C516.593 184.075 516.846 184.205 517.188 184.205C517.594 184.205 517.961 184.059 518.286 183.766C518.628 183.456 518.896 183.147 519.092 182.838L519.751 183.595ZM531.372 183.644C530.998 184.441 530.566 185.051 530.078 185.475C529.59 185.898 529.11 186.207 528.638 186.402C528.101 186.63 527.547 186.76 526.978 186.793C526.245 186.793 525.643 186.679 525.171 186.451C524.715 186.223 524.349 185.922 524.072 185.548C523.812 185.174 523.625 184.75 523.511 184.278C523.413 183.806 523.364 183.326 523.364 182.838V170.045H520.776L521.826 167.604H523.364V158.961L527.832 157.398V167.604H532.471L531.47 170.045H527.832V182.96C527.832 183.351 527.922 183.66 528.101 183.888C528.28 184.116 528.507 184.238 528.784 184.254C529.061 184.254 529.37 184.148 529.712 183.937C530.054 183.725 530.387 183.383 530.713 182.911L531.372 183.644ZM540.601 154.64L539.307 163.551L536.914 164.308L535.449 156.397L540.601 154.64ZM543.97 183.644C543.595 184.441 543.156 185.051 542.651 185.475C542.163 185.898 541.691 186.207 541.235 186.402C540.698 186.63 540.153 186.76 539.6 186.793C538.883 186.793 538.289 186.679 537.817 186.451C537.345 186.223 536.971 185.922 536.694 185.548C536.418 185.174 536.222 184.75 536.108 184.278C536.011 183.806 535.962 183.326 535.962 182.838V169.142L540.454 167.604V182.96C540.454 183.351 540.544 183.66 540.723 183.888C540.902 184.116 541.13 184.238 541.406 184.254C541.699 184.254 542.008 184.148 542.334 183.937C542.676 183.725 543.001 183.383 543.311 182.911L543.97 183.644ZM554.443 187.062C553.239 187.062 552.108 186.85 551.05 186.427C550.008 185.987 549.097 185.385 548.315 184.62C547.55 183.855 546.94 182.96 546.484 181.935C546.045 180.893 545.825 179.762 545.825 178.541C545.825 177.158 546.053 175.864 546.509 174.659C546.965 173.439 547.591 172.34 548.389 171.363C549.202 170.387 550.155 169.54 551.245 168.824C552.352 168.108 553.548 167.547 554.834 167.14L555.542 167.994C554.81 168.531 554.126 169.15 553.491 169.85C552.856 170.533 552.303 171.282 551.831 172.096C551.359 172.893 550.985 173.74 550.708 174.635C550.431 175.514 550.293 176.417 550.293 177.345C550.293 178.126 550.407 178.948 550.635 179.811C550.863 180.673 551.204 181.463 551.66 182.179C552.116 182.895 552.686 183.489 553.369 183.961C554.069 184.417 554.875 184.645 555.786 184.645C556.6 184.645 557.3 184.498 557.886 184.205C558.488 183.912 558.984 183.513 559.375 183.009C559.766 182.504 560.059 181.918 560.254 181.251C560.449 180.567 560.547 179.851 560.547 179.103C560.547 178.224 560.376 177.328 560.034 176.417C559.692 175.489 559.22 174.635 558.618 173.854C558.032 173.072 557.34 172.421 556.543 171.9C555.745 171.38 554.891 171.078 553.979 170.997C554.549 170.346 555.176 169.744 555.859 169.19C556.543 168.637 557.235 168.108 557.935 167.604C558.879 167.913 559.709 168.369 560.425 168.971C561.157 169.573 561.768 170.265 562.256 171.046C562.76 171.827 563.143 172.682 563.403 173.609C563.664 174.521 563.794 175.449 563.794 176.393C563.794 177.678 563.566 178.956 563.11 180.226C562.671 181.495 562.036 182.643 561.206 183.668C560.392 184.677 559.408 185.499 558.252 186.134C557.113 186.752 555.843 187.062 554.443 187.062ZM588.086 183.644C587.891 184.067 587.638 184.466 587.329 184.84C587.02 185.214 586.67 185.548 586.279 185.841C585.905 186.134 585.498 186.362 585.059 186.524C584.619 186.703 584.163 186.793 583.691 186.793C582.406 186.793 581.47 186.443 580.884 185.743C580.314 185.027 580.029 184.059 580.029 182.838V172.901C580.029 172.787 580.021 172.657 580.005 172.511C580.005 172.348 579.98 172.202 579.932 172.071C579.883 171.925 579.818 171.803 579.736 171.705C579.655 171.607 579.541 171.559 579.395 171.559C578.939 171.559 578.475 171.835 578.003 172.389C577.547 172.942 577.1 173.658 576.66 174.537C576.237 175.416 575.838 176.401 575.464 177.491C575.106 178.582 574.788 179.664 574.512 180.738C574.235 181.796 574.015 182.789 573.853 183.717C573.706 184.645 573.633 185.385 573.633 185.939L569.189 187.501V171.095C569.189 170.769 569.108 170.476 568.945 170.216C568.783 169.939 568.53 169.801 568.188 169.801C567.782 169.801 567.407 169.955 567.065 170.265C566.74 170.558 566.479 170.851 566.284 171.144L565.625 170.411C565.82 170.004 566.064 169.614 566.357 169.239C566.667 168.849 567.008 168.507 567.383 168.214C567.773 167.921 568.188 167.693 568.628 167.53C569.084 167.351 569.556 167.262 570.044 167.262C571.313 167.262 572.225 167.62 572.778 168.336C573.348 169.036 573.633 169.988 573.633 171.192V179.151C573.779 178.484 573.975 177.727 574.219 176.881C574.479 176.018 574.788 175.147 575.146 174.269C575.505 173.39 575.903 172.535 576.343 171.705C576.799 170.859 577.295 170.11 577.832 169.459C578.369 168.792 578.955 168.263 579.59 167.872C580.225 167.465 580.908 167.262 581.641 167.262C582.406 167.262 582.983 167.433 583.374 167.774C583.765 168.1 584.041 168.523 584.204 169.044C584.383 169.549 584.481 170.11 584.497 170.729C584.513 171.347 584.521 171.941 584.521 172.511V182.96C584.521 183.286 584.603 183.587 584.766 183.863C584.928 184.124 585.181 184.254 585.522 184.254C585.897 184.254 586.247 184.107 586.572 183.814C586.914 183.505 587.183 183.204 587.378 182.911L588.086 183.644ZM627.515 157.447C627.515 158.684 627.271 159.913 626.782 161.134C626.294 162.355 625.635 163.486 624.805 164.527C623.991 165.569 623.047 166.48 621.973 167.262C620.898 168.043 619.784 168.605 618.628 168.946L618.115 168.092C618.799 167.75 619.425 167.311 619.995 166.773C620.565 166.236 621.053 165.634 621.46 164.967C621.867 164.283 622.176 163.567 622.388 162.818C622.616 162.053 622.729 161.28 622.729 160.499C622.729 159.604 622.599 158.758 622.339 157.96C622.078 157.162 621.696 156.471 621.191 155.885C620.687 155.283 620.06 154.811 619.312 154.469C618.579 154.127 617.733 153.956 616.772 153.956C615.601 153.956 614.526 154.184 613.55 154.64C612.573 155.095 611.694 155.714 610.913 156.495C610.132 157.26 609.448 158.147 608.862 159.156C608.293 160.149 607.812 161.199 607.422 162.306C607.048 163.396 606.763 164.503 606.567 165.626C606.372 166.749 606.274 167.807 606.274 168.8C606.274 169.809 606.38 170.851 606.592 171.925C606.803 172.999 607.113 174.057 607.52 175.099C607.926 176.14 608.431 177.125 609.033 178.053C609.635 178.98 610.327 179.794 611.108 180.494C611.906 181.194 612.785 181.756 613.745 182.179C614.722 182.586 615.78 182.789 616.919 182.789C617.7 182.789 618.457 182.683 619.189 182.472C619.938 182.26 620.654 181.975 621.338 181.617C622.021 181.259 622.664 180.836 623.267 180.348C623.885 179.859 624.455 179.33 624.976 178.761L625.781 179.542C625.065 180.486 624.211 181.397 623.218 182.276C622.241 183.139 621.183 183.912 620.044 184.596C618.905 185.263 617.708 185.8 616.455 186.207C615.218 186.598 613.989 186.793 612.769 186.793C611.58 186.793 610.457 186.59 609.399 186.183C608.358 185.759 607.397 185.198 606.519 184.498C605.64 183.782 604.85 182.952 604.15 182.008C603.467 181.048 602.881 180.03 602.393 178.956C601.921 177.882 601.554 176.775 601.294 175.636C601.05 174.496 600.928 173.382 600.928 172.291C600.928 170.712 601.188 169.093 601.709 167.433C602.246 165.756 602.979 164.137 603.906 162.574C604.834 160.995 605.924 159.506 607.178 158.106C608.447 156.707 609.806 155.486 611.255 154.444C612.72 153.403 614.242 152.581 615.82 151.979C617.415 151.36 619.002 151.051 620.581 151.051C621.558 151.051 622.469 151.197 623.315 151.49C624.162 151.767 624.894 152.174 625.513 152.711C626.131 153.248 626.619 153.915 626.978 154.713C627.336 155.51 627.515 156.422 627.515 157.447ZM649.585 183.595C649.39 184.018 649.146 184.417 648.853 184.791C648.56 185.165 648.218 185.499 647.827 185.792C647.453 186.085 647.038 186.321 646.582 186.5C646.143 186.663 645.679 186.744 645.19 186.744C643.905 186.744 642.977 186.394 642.407 185.694C641.854 184.978 641.577 184.01 641.577 182.789V182.35C641.284 182.903 640.951 183.456 640.576 184.01C640.218 184.563 639.803 185.06 639.331 185.499C638.875 185.939 638.363 186.297 637.793 186.573C637.223 186.85 636.589 186.988 635.889 186.988C634.831 186.988 633.895 186.785 633.081 186.378C632.267 185.971 631.584 185.426 631.03 184.742C630.477 184.042 630.062 183.229 629.785 182.301C629.508 181.373 629.37 180.388 629.37 179.347C629.37 177.931 629.614 176.523 630.103 175.123C630.607 173.707 631.307 172.446 632.202 171.339C633.114 170.232 634.196 169.337 635.449 168.653C636.719 167.953 638.127 167.604 639.673 167.604C640.291 167.604 640.91 167.661 641.528 167.774C642.147 167.888 642.733 168.076 643.286 168.336C643.856 168.58 644.368 168.906 644.824 169.313C645.296 169.719 645.679 170.216 645.972 170.802L642.334 172.34C642.139 172.031 641.911 171.738 641.65 171.461C641.406 171.168 641.13 170.916 640.82 170.704C640.527 170.493 640.21 170.322 639.868 170.191C639.526 170.061 639.168 169.996 638.794 169.996C637.948 169.996 637.191 170.257 636.523 170.777C635.872 171.298 635.311 171.941 634.839 172.706C634.383 173.471 634.033 174.285 633.789 175.147C633.545 176.01 633.423 176.791 633.423 177.491C633.423 178.11 633.48 178.81 633.594 179.591C633.724 180.356 633.944 181.08 634.253 181.764C634.562 182.447 634.969 183.025 635.474 183.497C635.978 183.969 636.613 184.205 637.378 184.205C637.98 184.205 638.501 184.075 638.94 183.814C639.38 183.538 639.754 183.188 640.063 182.765C640.373 182.325 640.625 181.829 640.82 181.275C641.032 180.706 641.187 180.128 641.284 179.542C641.398 178.956 641.471 178.378 641.504 177.809C641.553 177.223 641.577 176.702 641.577 176.246V174.562L646.021 172.999V182.911C646.021 183.237 646.102 183.538 646.265 183.814C646.427 184.075 646.68 184.205 647.021 184.205C647.428 184.205 647.795 184.059 648.12 183.766C648.462 183.456 648.73 183.147 648.926 182.838L649.585 183.595ZM665.601 183.839C665.308 184.295 664.95 184.71 664.526 185.084C664.103 185.442 663.639 185.751 663.135 186.012C662.63 186.272 662.101 186.476 661.548 186.622C660.994 186.769 660.449 186.842 659.912 186.842C659.196 186.842 658.577 186.712 658.057 186.451C657.552 186.175 657.137 185.816 656.812 185.377C656.486 184.938 656.242 184.425 656.079 183.839C655.933 183.253 655.859 182.643 655.859 182.008C655.859 181.178 655.981 180.291 656.226 179.347C656.486 178.386 656.828 177.442 657.251 176.515C657.69 175.587 658.187 174.724 658.74 173.927C659.294 173.129 659.88 172.47 660.498 171.949C659.928 172.324 659.302 172.617 658.618 172.828C657.951 173.04 657.267 173.146 656.567 173.146C656.063 173.146 655.623 173.105 655.249 173.023C654.875 172.942 654.46 172.787 654.004 172.56L651.465 177.857L650.415 177.442L653.052 172.047C652.775 171.852 652.474 171.607 652.148 171.314C651.839 171.005 651.611 170.704 651.465 170.411L654.858 166.603C655.005 167.042 655.208 167.49 655.469 167.945C655.729 168.385 656.03 168.784 656.372 169.142C656.73 169.483 657.121 169.768 657.544 169.996C657.983 170.224 658.455 170.338 658.96 170.338C659.823 170.338 660.661 170.183 661.475 169.874C662.288 169.549 663.045 169.158 663.745 168.702L664.404 169.361C663.786 169.931 663.159 170.566 662.524 171.266C661.906 171.949 661.344 172.682 660.84 173.463C660.335 174.244 659.928 175.066 659.619 175.929C659.31 176.791 659.155 177.662 659.155 178.541C659.155 179.046 659.22 179.615 659.351 180.25C659.497 180.869 659.717 181.463 660.01 182.032C660.303 182.586 660.669 183.058 661.108 183.448C661.548 183.823 662.077 184.01 662.695 184.01C663.118 184.01 663.525 183.937 663.916 183.79C664.323 183.627 664.689 183.432 665.015 183.204L665.601 183.839ZM688.354 183.595C688.159 184.018 687.907 184.417 687.598 184.791C687.288 185.165 686.947 185.499 686.572 185.792C686.198 186.085 685.783 186.321 685.327 186.5C684.888 186.663 684.432 186.744 683.96 186.744C682.674 186.744 681.738 186.394 681.152 185.694C680.583 184.978 680.298 184.01 680.298 182.789V182.35C680.021 182.903 679.704 183.456 679.346 184.01C678.988 184.563 678.573 185.06 678.101 185.499C677.645 185.939 677.124 186.297 676.538 186.573C675.968 186.85 675.326 186.988 674.609 186.988C673.519 186.988 672.559 186.777 671.729 186.354C670.915 185.914 670.231 185.336 669.678 184.62C669.124 183.888 668.701 183.041 668.408 182.081C668.132 181.121 667.993 180.112 667.993 179.054C667.993 177.687 668.205 176.311 668.628 174.928C669.051 173.544 669.67 172.291 670.483 171.168C671.297 170.045 672.298 169.133 673.486 168.434C674.674 167.717 676.034 167.359 677.563 167.359C678.507 167.359 679.419 167.587 680.298 168.043V153.053L684.814 151.49V182.911C684.814 183.237 684.888 183.538 685.034 183.814C685.197 184.075 685.457 184.205 685.815 184.205C686.19 184.205 686.54 184.059 686.865 183.766C687.191 183.456 687.451 183.147 687.646 182.838L688.354 183.595ZM680.298 176.246V171.046C679.924 170.672 679.5 170.362 679.028 170.118C678.573 169.874 678.068 169.752 677.515 169.752C676.554 169.752 675.741 170.012 675.073 170.533C674.406 171.054 673.861 171.705 673.438 172.486C673.014 173.268 672.705 174.114 672.51 175.025C672.314 175.921 672.217 176.759 672.217 177.54C672.217 178.159 672.274 178.858 672.388 179.64C672.518 180.405 672.729 181.129 673.022 181.813C673.332 182.48 673.73 183.05 674.219 183.522C674.723 183.977 675.35 184.205 676.099 184.205C676.701 184.205 677.222 184.075 677.661 183.814C678.117 183.538 678.499 183.188 678.809 182.765C679.118 182.325 679.37 181.829 679.565 181.275C679.761 180.706 679.907 180.128 680.005 179.542C680.119 178.956 680.192 178.378 680.225 177.809C680.273 177.223 680.298 176.702 680.298 176.246ZM702.124 179.762C702.124 180.771 701.937 181.715 701.562 182.594C701.188 183.473 700.675 184.238 700.024 184.889C699.39 185.54 698.625 186.052 697.729 186.427C696.851 186.801 695.898 186.988 694.873 186.988C694.434 186.988 693.953 186.948 693.433 186.866C692.928 186.785 692.424 186.663 691.919 186.5C691.414 186.337 690.934 186.134 690.479 185.89C690.039 185.646 689.673 185.353 689.38 185.011L692.261 181.251C692.456 181.56 692.692 181.902 692.969 182.276C693.262 182.634 693.579 182.968 693.921 183.277C694.279 183.587 694.653 183.847 695.044 184.059C695.451 184.254 695.858 184.352 696.265 184.352C696.737 184.352 697.176 184.27 697.583 184.107C698.006 183.945 698.372 183.717 698.682 183.424C698.991 183.115 699.235 182.757 699.414 182.35C699.593 181.943 699.683 181.495 699.683 181.007C699.683 180.356 699.455 179.762 698.999 179.225C698.56 178.671 698.031 178.142 697.412 177.638C696.81 177.117 696.175 176.588 695.508 176.051C694.857 175.497 694.328 174.895 693.921 174.244L691.382 177.955L690.43 177.247L693.359 173.194C693.132 172.722 692.952 172.226 692.822 171.705C692.692 171.184 692.627 170.663 692.627 170.143C692.627 169.703 692.7 169.239 692.847 168.751C692.993 168.263 693.205 167.815 693.481 167.408C693.758 167.001 694.092 166.668 694.482 166.407C694.889 166.131 695.353 165.992 695.874 165.992C696.379 165.992 696.802 166.147 697.144 166.456C697.502 166.765 697.681 167.197 697.681 167.75C697.681 168.043 697.632 168.336 697.534 168.629C697.437 168.922 697.314 169.215 697.168 169.508C697.021 169.801 696.859 170.086 696.68 170.362C696.501 170.623 696.33 170.867 696.167 171.095C696.558 171.648 696.981 172.128 697.437 172.535C697.892 172.942 698.34 173.325 698.779 173.683C699.219 174.041 699.642 174.399 700.049 174.757C700.456 175.115 700.806 175.522 701.099 175.978C701.408 176.433 701.652 176.962 701.831 177.564C702.026 178.167 702.124 178.899 702.124 179.762ZM696.582 168.189C696.582 167.962 696.501 167.791 696.338 167.677C696.191 167.563 696.021 167.506 695.825 167.506C695.549 167.506 695.353 167.604 695.239 167.799C695.125 167.978 695.068 168.181 695.068 168.409C695.068 168.735 695.117 169.052 695.215 169.361C695.329 169.671 695.467 169.964 695.63 170.24C695.695 170.126 695.776 169.98 695.874 169.801C695.988 169.622 696.094 169.435 696.191 169.239C696.305 169.028 696.395 168.832 696.46 168.653C696.541 168.458 696.582 168.303 696.582 168.189Z"/><defs><linearGradient id="paint0_linear" x1="380.817" x2="346.841" y1="33.847" y2="122.092" gradientUnits="userSpaceOnUse"><stop stop-color="#FE8BC5"/><stop offset=".49" stop-color="#FE8BC5" stop-opacity=".724"/><stop offset="1" stop-color="#FE8BC5" stop-opacity="0"/></linearGradient><linearGradient id="paint1_linear" x1="424.108" x2="431.647" y1="31.647" y2="125.907" gradientUnits="userSpaceOnUse"><stop stop-color="#FE8BC5"/><stop offset=".49" stop-color="#FE8BC5" stop-opacity=".724"/><stop offset="1" stop-color="#FE8BC5" stop-opacity="0"/></linearGradient></defs></svg>