<svg width="840" height="198" viewBox="0 0 840 198" fill="none" xmlns="http://www.w3.org/2000/svg">
<path d="M346.649 122.648L342.791 113.095C328.864 85.5448 317.844 59.0897 325.591 38.9706C336.438 19.3924 350.663 18.841 361.404 23.0016C374.756 30.4073 375.166 35.1306 377.477 43.8429C385.033 38.9295 394.543 32.9303 402.418 35.9625C416.359 41.3299 428.597 56.2065 422.285 72.5999C414.539 92.7191 401.504 93.7375 365.579 114.305L346.649 122.648Z" fill="#ED56A2"/>
<path d="M346.984 122.148L341.458 110.467L340.123 105.727C325.414 64.195 327.471 60.4508 334.363 40.734C344.713 25.0536 353.927 26.2338 365.002 27.9868C370.794 30.2169 376.202 36.386 377.278 44.4122C383.459 39.1801 390.091 36.1606 396.029 37.0191C406.282 40.9667 419.652 53.9067 413.51 69.8582C405.973 89.435 402.451 86.9516 365.706 113.972L346.984 122.148Z" fill="#F02B8E"/>
<path d="M347.306 122.271L340.409 103.747C332.177 64.1217 332.082 66.6502 339.443 47.5308C347.509 31.0752 360.222 30.9607 368.634 31.7471C372.93 33.4012 376.619 38.813 376.818 46.3235C382.002 40.8854 388.752 38.2962 393.269 38.6408C400.873 41.5688 411.662 52.6399 405.664 68.2187C398.303 87.3381 395.165 88.4244 367.362 111.726L347.306 122.271Z" fill="url(#paint0_linear)"/>
<path d="M377.959 43.1091L346.813 122.355" stroke="#FB7CBC"/>
<path d="M431.714 126.49L424.104 119.547C399.63 100.732 378.251 81.6464 376.532 60.1562C377.843 37.8122 390.43 31.1618 401.914 30.267C417.156 31.1681 419.568 35.2493 425.42 42.105C430.108 34.4064 436.087 24.884 444.499 24.2112C459.389 23.0202 476.859 31.1391 478.259 48.6497C479.978 70.1399 468.666 76.6967 445.172 110.78L431.714 126.49Z" fill="#ED56A2"/>
<path d="M431.8 125.895L421.765 117.753L418.511 114.058C387.284 82.975 387.519 78.7094 385.204 57.9515C387.753 39.3369 396.571 36.4153 407.314 33.2052C413.501 32.7103 421.045 35.9332 425.487 42.7042C428.797 35.3133 433.47 29.7222 439.195 27.9275C450.147 27.0516 467.799 32.935 469.162 49.9735C470.834 70.8844 466.584 70.169 445.144 110.425L431.8 125.895Z" fill="#F02B8E"/>
<path d="M432.144 125.867L417.913 112.149C393.35 79.9833 394.357 82.3045 392.724 61.8821C392.878 43.5567 404.291 37.9541 412.215 35.0244C416.804 34.6573 422.471 37.941 425.899 44.6266C428.221 37.4811 433.187 32.2268 437.408 30.5836C445.531 29.934 460.047 35.2488 461.378 51.8893C463.012 72.3117 460.653 74.6483 445.665 107.684L432.144 125.867Z" fill="url(#paint1_linear)"/>
<path d="M425.538 41.2348L431.735 126.156" stroke="#FB7CBC"/>
<path d="M28.5889 157.447C28.5889 158.684 28.3447 159.913 27.8564 161.134C27.3682 162.355 26.709 163.486 25.8789 164.527C25.0651 165.569 24.1211 166.48 23.0469 167.262C21.9727 168.043 20.8577 168.605 19.7021 168.946L19.1895 168.092C19.873 167.75 20.4997 167.311 21.0693 166.773C21.639 166.236 22.1273 165.634 22.5342 164.967C22.9411 164.283 23.2503 163.567 23.4619 162.818C23.6898 162.053 23.8037 161.28 23.8037 160.499C23.8037 159.604 23.6735 158.758 23.4131 157.96C23.1527 157.162 22.7702 156.471 22.2656 155.885C21.7611 155.283 21.1344 154.811 20.3857 154.469C19.6533 154.127 18.807 153.956 17.8467 153.956C16.6748 153.956 15.6006 154.184 14.624 154.64C13.6475 155.095 12.7686 155.714 11.9873 156.495C11.2061 157.26 10.5225 158.147 9.93652 159.156C9.36686 160.149 8.88672 161.199 8.49609 162.306C8.12174 163.396 7.83691 164.503 7.6416 165.626C7.44629 166.749 7.34863 167.807 7.34863 168.8C7.34863 169.809 7.45443 170.851 7.66602 171.925C7.8776 172.999 8.18685 174.057 8.59375 175.099C9.00065 176.14 9.50521 177.125 10.1074 178.053C10.7096 178.98 11.4014 179.794 12.1826 180.494C12.9801 181.194 13.859 181.756 14.8193 182.179C15.7959 182.586 16.8538 182.789 17.9932 182.789C18.7744 182.789 19.5312 182.683 20.2637 182.472C21.0124 182.26 21.7285 181.975 22.4121 181.617C23.0957 181.259 23.7386 180.836 24.3408 180.348C24.9593 179.859 25.529 179.33 26.0498 178.761L26.8555 179.542C26.1393 180.486 25.2848 181.397 24.292 182.276C23.3154 183.139 22.2575 183.912 21.1182 184.596C19.9788 185.263 18.7826 185.8 17.5293 186.207C16.2923 186.598 15.0635 186.793 13.8428 186.793C12.6546 186.793 11.5316 186.59 10.4736 186.183C9.43197 185.759 8.47168 185.198 7.59277 184.498C6.71387 183.782 5.92448 182.952 5.22461 182.008C4.54102 181.048 3.95508 180.03 3.4668 178.956C2.99479 177.882 2.62858 176.775 2.36816 175.636C2.12402 174.496 2.00195 173.382 2.00195 172.291C2.00195 170.712 2.26237 169.093 2.7832 167.433C3.32031 165.756 4.05273 164.137 4.98047 162.574C5.9082 160.995 6.9987 159.506 8.25195 158.106C9.52148 156.707 10.8805 155.486 12.3291 154.444C13.7939 153.403 15.3158 152.581 16.8945 151.979C18.4896 151.36 20.0765 151.051 21.6553 151.051C22.6318 151.051 23.5433 151.197 24.3896 151.49C25.236 151.767 25.9684 152.174 26.5869 152.711C27.2054 153.248 27.6937 153.915 28.0518 154.713C28.4098 155.51 28.5889 156.422 28.5889 157.447ZM43.9697 183.839C43.6768 184.295 43.3187 184.71 42.8955 185.084C42.4723 185.442 42.0085 185.751 41.5039 186.012C40.9993 186.272 40.4704 186.476 39.917 186.622C39.3636 186.769 38.8184 186.842 38.2812 186.842C37.5651 186.842 36.9466 186.712 36.4258 186.451C35.9212 186.175 35.5062 185.816 35.1807 185.377C34.8551 184.938 34.611 184.425 34.4482 183.839C34.3018 183.253 34.2285 182.643 34.2285 182.008C34.2285 181.178 34.3506 180.291 34.5947 179.347C34.8551 178.386 35.1969 177.442 35.6201 176.515C36.0596 175.587 36.556 174.724 37.1094 173.927C37.6628 173.129 38.2487 172.47 38.8672 171.949C38.2975 172.324 37.6709 172.617 36.9873 172.828C36.32 173.04 35.6364 173.146 34.9365 173.146C34.432 173.146 33.9925 173.105 33.6182 173.023C33.2438 172.942 32.8288 172.787 32.373 172.56L29.834 177.857L28.7842 177.442L31.4209 172.047C31.1442 171.852 30.8431 171.607 30.5176 171.314C30.2083 171.005 29.9805 170.704 29.834 170.411L33.2275 166.603C33.374 167.042 33.5775 167.49 33.8379 167.945C34.0983 168.385 34.3994 168.784 34.7412 169.142C35.0993 169.483 35.4899 169.768 35.9131 169.996C36.3525 170.224 36.8245 170.338 37.3291 170.338C38.1917 170.338 39.0299 170.183 39.8438 169.874C40.6576 169.549 41.4144 169.158 42.1143 168.702L42.7734 169.361C42.1549 169.931 41.5283 170.566 40.8936 171.266C40.2751 171.949 39.7135 172.682 39.209 173.463C38.7044 174.244 38.2975 175.066 37.9883 175.929C37.679 176.791 37.5244 177.662 37.5244 178.541C37.5244 179.046 37.5895 179.615 37.7197 180.25C37.8662 180.869 38.0859 181.463 38.3789 182.032C38.6719 182.586 39.0381 183.058 39.4775 183.448C39.917 183.823 40.446 184.01 41.0645 184.01C41.4876 184.01 41.8945 183.937 42.2852 183.79C42.6921 183.627 43.0583 183.432 43.3838 183.204L43.9697 183.839ZM63.8184 181.739C63.2487 182.472 62.6221 183.155 61.9385 183.79C61.2712 184.425 60.5387 184.978 59.7412 185.45C58.96 185.922 58.1299 186.297 57.251 186.573C56.3721 186.85 55.4606 186.988 54.5166 186.988C53.3122 186.988 52.2054 186.777 51.1963 186.354C50.1872 185.914 49.3164 185.32 48.584 184.571C47.8516 183.806 47.2819 182.911 46.875 181.886C46.4681 180.844 46.2646 179.729 46.2646 178.541C46.2646 177.564 46.403 176.604 46.6797 175.66C46.9564 174.716 47.347 173.829 47.8516 172.999C48.3561 172.169 48.9502 171.404 49.6338 170.704C50.3337 169.988 51.0986 169.378 51.9287 168.873C52.7588 168.369 53.6377 167.978 54.5654 167.701C55.4932 167.408 56.4453 167.262 57.4219 167.262C58.1055 167.262 58.7484 167.343 59.3506 167.506C59.9691 167.669 60.5143 167.929 60.9863 168.287C61.4583 168.629 61.8327 169.077 62.1094 169.63C62.3861 170.167 62.5244 170.81 62.5244 171.559C62.5244 172.177 62.3372 172.828 61.9629 173.512C61.6048 174.195 61.1247 174.879 60.5225 175.563C59.9365 176.246 59.2692 176.922 58.5205 177.589C57.7718 178.24 57.0068 178.85 56.2256 179.42C55.4606 179.973 54.7201 180.462 54.0039 180.885C53.2878 181.308 52.6611 181.633 52.124 181.861C52.7262 182.61 53.4261 183.22 54.2236 183.692C55.0212 184.164 55.8675 184.4 56.7627 184.4C57.3324 184.4 57.9102 184.295 58.4961 184.083C59.082 183.855 59.6436 183.57 60.1807 183.229C60.734 182.887 61.2549 182.512 61.7432 182.105C62.2477 181.699 62.6953 181.316 63.0859 180.958L63.8184 181.739ZM57.9346 172.462C57.9346 172.088 57.8695 171.73 57.7393 171.388C57.6253 171.046 57.4544 170.753 57.2266 170.509C56.9987 170.248 56.722 170.045 56.3965 169.898C56.0872 169.736 55.7292 169.654 55.3223 169.654C54.5898 169.654 53.9144 169.915 53.2959 170.436C52.6774 170.94 52.1403 171.567 51.6846 172.315C51.2451 173.064 50.8952 173.862 50.6348 174.708C50.3906 175.538 50.2686 176.271 50.2686 176.905C50.2686 177.524 50.3662 178.159 50.5615 178.81C50.7568 179.461 51.0254 180.087 51.3672 180.689C52.0182 180.331 52.7262 179.835 53.4912 179.2C54.2562 178.565 54.9642 177.874 55.6152 177.125C56.2826 176.36 56.8359 175.571 57.2754 174.757C57.7148 173.943 57.9346 173.178 57.9346 172.462ZM86.4502 183.595C86.2549 184.018 86.0107 184.417 85.7178 184.791C85.4248 185.165 85.083 185.499 84.6924 185.792C84.318 186.085 83.903 186.321 83.4473 186.5C83.0078 186.663 82.5439 186.744 82.0557 186.744C80.7699 186.744 79.8421 186.394 79.2725 185.694C78.7191 184.978 78.4424 184.01 78.4424 182.789V182.35C78.1494 182.903 77.8158 183.456 77.4414 184.01C77.0833 184.563 76.6683 185.06 76.1963 185.499C75.7406 185.939 75.2279 186.297 74.6582 186.573C74.0885 186.85 73.4538 186.988 72.7539 186.988C71.696 186.988 70.7601 186.785 69.9463 186.378C69.1325 185.971 68.4489 185.426 67.8955 184.742C67.3421 184.042 66.9271 183.229 66.6504 182.301C66.3737 181.373 66.2354 180.388 66.2354 179.347C66.2354 177.931 66.4795 176.523 66.9678 175.123C67.4723 173.707 68.1722 172.446 69.0674 171.339C69.9788 170.232 71.0612 169.337 72.3145 168.653C73.584 167.953 74.9919 167.604 76.5381 167.604C77.1566 167.604 77.7751 167.661 78.3936 167.774C79.012 167.888 79.598 168.076 80.1514 168.336C80.721 168.58 81.2337 168.906 81.6895 169.313C82.1615 169.719 82.5439 170.216 82.8369 170.802L79.1992 172.34C79.0039 172.031 78.776 171.738 78.5156 171.461C78.2715 171.168 77.9948 170.916 77.6855 170.704C77.3926 170.493 77.0752 170.322 76.7334 170.191C76.3916 170.061 76.0335 169.996 75.6592 169.996C74.8128 169.996 74.056 170.257 73.3887 170.777C72.7376 171.298 72.1761 171.941 71.7041 172.706C71.2484 173.471 70.8984 174.285 70.6543 175.147C70.4102 176.01 70.2881 176.791 70.2881 177.491C70.2881 178.11 70.3451 178.81 70.459 179.591C70.5892 180.356 70.8089 181.08 71.1182 181.764C71.4274 182.447 71.8343 183.025 72.3389 183.497C72.8434 183.969 73.4782 184.205 74.2432 184.205C74.8454 184.205 75.3662 184.075 75.8057 183.814C76.2451 183.538 76.6195 183.188 76.9287 182.765C77.238 182.325 77.4902 181.829 77.6855 181.275C77.8971 180.706 78.0518 180.128 78.1494 179.542C78.2633 178.956 78.3366 178.378 78.3691 177.809C78.418 177.223 78.4424 176.702 78.4424 176.246V174.562L82.8857 172.999V182.911C82.8857 183.237 82.9671 183.538 83.1299 183.814C83.2926 184.075 83.5449 184.205 83.8867 184.205C84.2936 184.205 84.6598 184.059 84.9854 183.766C85.3271 183.456 85.5957 183.147 85.791 182.838L86.4502 183.595ZM98.0713 183.644C97.6969 184.441 97.2656 185.051 96.7773 185.475C96.2891 185.898 95.8089 186.207 95.3369 186.402C94.7998 186.63 94.2464 186.76 93.6768 186.793C92.9443 186.793 92.3421 186.679 91.8701 186.451C91.4144 186.223 91.0482 185.922 90.7715 185.548C90.5111 185.174 90.3239 184.75 90.21 184.278C90.1123 183.806 90.0635 183.326 90.0635 182.838V170.045H87.4756L88.5254 167.604H90.0635V158.961L94.5312 157.398V167.604H99.1699L98.1689 170.045H94.5312V182.96C94.5312 183.351 94.6208 183.66 94.7998 183.888C94.9788 184.116 95.2067 184.238 95.4834 184.254C95.7601 184.254 96.0693 184.148 96.4111 183.937C96.7529 183.725 97.0866 183.383 97.4121 182.911L98.0713 183.644ZM118.506 181.739C117.936 182.472 117.31 183.155 116.626 183.79C115.959 184.425 115.226 184.978 114.429 185.45C113.647 185.922 112.817 186.297 111.938 186.573C111.06 186.85 110.148 186.988 109.204 186.988C108 186.988 106.893 186.777 105.884 186.354C104.875 185.914 104.004 185.32 103.271 184.571C102.539 183.806 101.969 182.911 101.562 181.886C101.156 180.844 100.952 179.729 100.952 178.541C100.952 177.564 101.09 176.604 101.367 175.66C101.644 174.716 102.035 173.829 102.539 172.999C103.044 172.169 103.638 171.404 104.321 170.704C105.021 169.988 105.786 169.378 106.616 168.873C107.446 168.369 108.325 167.978 109.253 167.701C110.181 167.408 111.133 167.262 112.109 167.262C112.793 167.262 113.436 167.343 114.038 167.506C114.657 167.669 115.202 167.929 115.674 168.287C116.146 168.629 116.52 169.077 116.797 169.63C117.074 170.167 117.212 170.81 117.212 171.559C117.212 172.177 117.025 172.828 116.65 173.512C116.292 174.195 115.812 174.879 115.21 175.563C114.624 176.246 113.957 176.922 113.208 177.589C112.459 178.24 111.694 178.85 110.913 179.42C110.148 179.973 109.408 180.462 108.691 180.885C107.975 181.308 107.349 181.633 106.812 181.861C107.414 182.61 108.114 183.22 108.911 183.692C109.709 184.164 110.555 184.4 111.45 184.4C112.02 184.4 112.598 184.295 113.184 184.083C113.77 183.855 114.331 183.57 114.868 183.229C115.422 182.887 115.942 182.512 116.431 182.105C116.935 181.699 117.383 181.316 117.773 180.958L118.506 181.739ZM112.622 172.462C112.622 172.088 112.557 171.73 112.427 171.388C112.313 171.046 112.142 170.753 111.914 170.509C111.686 170.248 111.41 170.045 111.084 169.898C110.775 169.736 110.417 169.654 110.01 169.654C109.277 169.654 108.602 169.915 107.983 170.436C107.365 170.94 106.828 171.567 106.372 172.315C105.933 173.064 105.583 173.862 105.322 174.708C105.078 175.538 104.956 176.271 104.956 176.905C104.956 177.524 105.054 178.159 105.249 178.81C105.444 179.461 105.713 180.087 106.055 180.689C106.706 180.331 107.414 179.835 108.179 179.2C108.944 178.565 109.652 177.874 110.303 177.125C110.97 176.36 111.523 175.571 111.963 174.757C112.402 173.943 112.622 173.178 112.622 172.462ZM163.989 183.155C163.745 183.627 163.436 184.083 163.062 184.522C162.703 184.962 162.288 185.353 161.816 185.694C161.361 186.02 160.872 186.288 160.352 186.5C159.831 186.695 159.294 186.793 158.74 186.793C157.829 186.793 157.031 186.622 156.348 186.28C155.68 185.939 155.111 185.483 154.639 184.913C154.183 184.327 153.841 183.66 153.613 182.911C153.385 182.162 153.271 181.373 153.271 180.543V171.095C153.044 172.136 152.783 173.259 152.49 174.464C152.197 175.652 151.839 176.84 151.416 178.028C150.993 179.2 150.496 180.331 149.927 181.422C149.357 182.512 148.682 183.481 147.9 184.327C147.135 185.157 146.257 185.825 145.264 186.329C144.271 186.817 143.14 187.062 141.87 187.062C140.324 187.062 138.94 186.769 137.72 186.183C136.499 185.597 135.457 184.791 134.595 183.766C133.748 182.74 133.097 181.528 132.642 180.128C132.202 178.712 131.982 177.182 131.982 175.538C131.982 173.585 132.292 171.632 132.91 169.679C133.529 167.709 134.375 165.821 135.449 164.015C136.54 162.208 137.826 160.532 139.307 158.985C140.804 157.439 142.432 156.096 144.189 154.957C145.947 153.818 147.795 152.931 149.731 152.296C151.685 151.661 153.654 151.36 155.64 151.393H155.933V152.491C154.224 152.573 152.58 152.947 151.001 153.614C149.422 154.265 147.941 155.128 146.558 156.202C145.19 157.26 143.937 158.489 142.798 159.889C141.659 161.288 140.682 162.778 139.868 164.356C139.071 165.935 138.444 167.563 137.988 169.239C137.549 170.916 137.329 172.568 137.329 174.195C137.329 174.83 137.37 175.514 137.451 176.246C137.533 176.962 137.671 177.687 137.866 178.419C138.062 179.135 138.314 179.827 138.623 180.494C138.932 181.145 139.315 181.731 139.771 182.252C140.243 182.757 140.788 183.163 141.406 183.473C142.025 183.766 142.733 183.912 143.53 183.912C144.491 183.912 145.361 183.619 146.143 183.033C146.924 182.447 147.632 181.658 148.267 180.665C148.901 179.672 149.463 178.517 149.951 177.198C150.456 175.88 150.895 174.488 151.27 173.023C151.644 171.559 151.953 170.069 152.197 168.556C152.458 167.026 152.661 165.561 152.808 164.161C152.97 162.761 153.084 161.467 153.149 160.279C153.231 159.075 153.271 158.066 153.271 157.252L158.325 155.397V181.349C158.325 181.674 158.358 182 158.423 182.325C158.488 182.651 158.602 182.952 158.765 183.229C158.927 183.489 159.131 183.701 159.375 183.863C159.635 184.026 159.953 184.107 160.327 184.107C160.897 184.107 161.434 183.937 161.938 183.595C162.443 183.253 162.858 182.87 163.184 182.447L163.989 183.155ZM189.038 170.655C189.038 171.16 188.973 171.721 188.843 172.34C188.729 172.942 188.558 173.479 188.33 173.951L182.642 186.158C182.544 186.337 182.406 186.451 182.227 186.5C182.064 186.565 181.885 186.598 181.689 186.598C181.462 186.598 181.242 186.557 181.03 186.476C180.819 186.394 180.672 186.24 180.591 186.012L176.782 172.56L173.389 185.841C173.258 186.118 173.071 186.329 172.827 186.476C172.599 186.622 172.339 186.695 172.046 186.695C171.834 186.695 171.631 186.655 171.436 186.573C171.257 186.492 171.143 186.337 171.094 186.109L166.797 172.389C166.732 172.193 166.642 171.99 166.528 171.778C166.431 171.55 166.3 171.347 166.138 171.168C165.991 170.973 165.82 170.818 165.625 170.704C165.446 170.574 165.234 170.509 164.99 170.509C164.665 170.509 164.364 170.598 164.087 170.777C163.826 170.956 163.59 171.144 163.379 171.339L162.891 170.704C163.135 170.248 163.444 169.825 163.818 169.435C164.193 169.028 164.608 168.67 165.063 168.36C165.519 168.051 165.999 167.807 166.504 167.628C167.025 167.449 167.554 167.359 168.091 167.359C168.547 167.359 168.929 167.49 169.238 167.75C169.548 168.01 169.808 168.328 170.02 168.702C170.231 169.077 170.402 169.475 170.532 169.898C170.679 170.322 170.801 170.704 170.898 171.046C171.387 172.576 171.867 174.114 172.339 175.66C172.827 177.206 173.307 178.736 173.779 180.25L176.196 170.46L175.586 168.507L179.688 167.14L183.691 181.349L185.986 176.1C186.084 175.855 186.165 175.546 186.23 175.172C186.296 174.781 186.328 174.456 186.328 174.195C186.328 173.219 186.076 172.381 185.571 171.681C185.083 170.981 184.424 170.419 183.594 169.996L186.377 166.139C187.288 166.594 187.956 167.213 188.379 167.994C188.818 168.759 189.038 169.646 189.038 170.655ZM209.131 181.739C208.561 182.472 207.935 183.155 207.251 183.79C206.584 184.425 205.851 184.978 205.054 185.45C204.272 185.922 203.442 186.297 202.563 186.573C201.685 186.85 200.773 186.988 199.829 186.988C198.625 186.988 197.518 186.777 196.509 186.354C195.5 185.914 194.629 185.32 193.896 184.571C193.164 183.806 192.594 182.911 192.188 181.886C191.781 180.844 191.577 179.729 191.577 178.541C191.577 177.564 191.715 176.604 191.992 175.66C192.269 174.716 192.66 173.829 193.164 172.999C193.669 172.169 194.263 171.404 194.946 170.704C195.646 169.988 196.411 169.378 197.241 168.873C198.071 168.369 198.95 167.978 199.878 167.701C200.806 167.408 201.758 167.262 202.734 167.262C203.418 167.262 204.061 167.343 204.663 167.506C205.282 167.669 205.827 167.929 206.299 168.287C206.771 168.629 207.145 169.077 207.422 169.63C207.699 170.167 207.837 170.81 207.837 171.559C207.837 172.177 207.65 172.828 207.275 173.512C206.917 174.195 206.437 174.879 205.835 175.563C205.249 176.246 204.582 176.922 203.833 177.589C203.084 178.24 202.319 178.85 201.538 179.42C200.773 179.973 200.033 180.462 199.316 180.885C198.6 181.308 197.974 181.633 197.437 181.861C198.039 182.61 198.739 183.22 199.536 183.692C200.334 184.164 201.18 184.4 202.075 184.4C202.645 184.4 203.223 184.295 203.809 184.083C204.395 183.855 204.956 183.57 205.493 183.229C206.047 182.887 206.567 182.512 207.056 182.105C207.56 181.699 208.008 181.316 208.398 180.958L209.131 181.739ZM203.247 172.462C203.247 172.088 203.182 171.73 203.052 171.388C202.938 171.046 202.767 170.753 202.539 170.509C202.311 170.248 202.035 170.045 201.709 169.898C201.4 169.736 201.042 169.654 200.635 169.654C199.902 169.654 199.227 169.915 198.608 170.436C197.99 170.94 197.453 171.567 196.997 172.315C196.558 173.064 196.208 173.862 195.947 174.708C195.703 175.538 195.581 176.271 195.581 176.905C195.581 177.524 195.679 178.159 195.874 178.81C196.069 179.461 196.338 180.087 196.68 180.689C197.331 180.331 198.039 179.835 198.804 179.2C199.569 178.565 200.277 177.874 200.928 177.125C201.595 176.36 202.148 175.571 202.588 174.757C203.027 173.943 203.247 173.178 203.247 172.462ZM223.413 179.762C223.413 180.771 223.226 181.715 222.852 182.594C222.477 183.473 221.965 184.238 221.313 184.889C220.679 185.54 219.914 186.052 219.019 186.427C218.14 186.801 217.188 186.988 216.162 186.988C215.723 186.988 215.243 186.948 214.722 186.866C214.217 186.785 213.713 186.663 213.208 186.5C212.703 186.337 212.223 186.134 211.768 185.89C211.328 185.646 210.962 185.353 210.669 185.011L213.55 181.251C213.745 181.56 213.981 181.902 214.258 182.276C214.551 182.634 214.868 182.968 215.21 183.277C215.568 183.587 215.942 183.847 216.333 184.059C216.74 184.254 217.147 184.352 217.554 184.352C218.026 184.352 218.465 184.27 218.872 184.107C219.295 183.945 219.661 183.717 219.971 183.424C220.28 183.115 220.524 182.757 220.703 182.35C220.882 181.943 220.972 181.495 220.972 181.007C220.972 180.356 220.744 179.762 220.288 179.225C219.849 178.671 219.32 178.142 218.701 177.638C218.099 177.117 217.464 176.588 216.797 176.051C216.146 175.497 215.617 174.895 215.21 174.244L212.671 177.955L211.719 177.247L214.648 173.194C214.421 172.722 214.242 172.226 214.111 171.705C213.981 171.184 213.916 170.663 213.916 170.143C213.916 169.703 213.989 169.239 214.136 168.751C214.282 168.263 214.494 167.815 214.771 167.408C215.047 167.001 215.381 166.668 215.771 166.407C216.178 166.131 216.642 165.992 217.163 165.992C217.668 165.992 218.091 166.147 218.433 166.456C218.791 166.765 218.97 167.197 218.97 167.75C218.97 168.043 218.921 168.336 218.823 168.629C218.726 168.922 218.604 169.215 218.457 169.508C218.311 169.801 218.148 170.086 217.969 170.362C217.79 170.623 217.619 170.867 217.456 171.095C217.847 171.648 218.27 172.128 218.726 172.535C219.181 172.942 219.629 173.325 220.068 173.683C220.508 174.041 220.931 174.399 221.338 174.757C221.745 175.115 222.095 175.522 222.388 175.978C222.697 176.433 222.941 176.962 223.12 177.564C223.315 178.167 223.413 178.899 223.413 179.762ZM217.871 168.189C217.871 167.962 217.79 167.791 217.627 167.677C217.48 167.563 217.31 167.506 217.114 167.506C216.838 167.506 216.642 167.604 216.528 167.799C216.414 167.978 216.357 168.181 216.357 168.409C216.357 168.735 216.406 169.052 216.504 169.361C216.618 169.671 216.756 169.964 216.919 170.24C216.984 170.126 217.065 169.98 217.163 169.801C217.277 169.622 217.383 169.435 217.48 169.239C217.594 169.028 217.684 168.832 217.749 168.653C217.83 168.458 217.871 168.303 217.871 168.189ZM234.766 187.062C233.561 187.062 232.43 186.85 231.372 186.427C230.33 185.987 229.419 185.385 228.638 184.62C227.873 183.855 227.262 182.96 226.807 181.935C226.367 180.893 226.147 179.762 226.147 178.541C226.147 177.158 226.375 175.864 226.831 174.659C227.287 173.439 227.913 172.34 228.711 171.363C229.525 170.387 230.477 169.54 231.567 168.824C232.674 168.108 233.87 167.547 235.156 167.14L235.864 167.994C235.132 168.531 234.448 169.15 233.813 169.85C233.179 170.533 232.625 171.282 232.153 172.096C231.681 172.893 231.307 173.74 231.03 174.635C230.754 175.514 230.615 176.417 230.615 177.345C230.615 178.126 230.729 178.948 230.957 179.811C231.185 180.673 231.527 181.463 231.982 182.179C232.438 182.895 233.008 183.489 233.691 183.961C234.391 184.417 235.197 184.645 236.108 184.645C236.922 184.645 237.622 184.498 238.208 184.205C238.81 183.912 239.307 183.513 239.697 183.009C240.088 182.504 240.381 181.918 240.576 181.251C240.771 180.567 240.869 179.851 240.869 179.103C240.869 178.224 240.698 177.328 240.356 176.417C240.015 175.489 239.543 174.635 238.94 173.854C238.354 173.072 237.663 172.421 236.865 171.9C236.068 171.38 235.213 171.078 234.302 170.997C234.871 170.346 235.498 169.744 236.182 169.19C236.865 168.637 237.557 168.108 238.257 167.604C239.201 167.913 240.031 168.369 240.747 168.971C241.479 169.573 242.09 170.265 242.578 171.046C243.083 171.827 243.465 172.682 243.726 173.609C243.986 174.521 244.116 175.449 244.116 176.393C244.116 177.678 243.888 178.956 243.433 180.226C242.993 181.495 242.358 182.643 241.528 183.668C240.715 184.677 239.73 185.499 238.574 186.134C237.435 186.752 236.165 187.062 234.766 187.062ZM275.098 183.644C274.723 184.441 274.284 185.051 273.779 185.475C273.275 185.898 272.795 186.207 272.339 186.402C271.802 186.63 271.257 186.76 270.703 186.793C269.971 186.793 269.368 186.679 268.896 186.451C268.441 186.223 268.075 185.922 267.798 185.548C267.521 185.174 267.326 184.75 267.212 184.278C267.114 183.806 267.065 183.326 267.065 182.838V172.608C267.065 172.348 267.017 172.12 266.919 171.925C266.821 171.713 266.691 171.591 266.528 171.559C266.366 171.526 266.17 171.607 265.942 171.803C265.715 171.998 265.47 172.348 265.21 172.853C264.771 174.155 264.372 175.522 264.014 176.954C263.704 178.191 263.42 179.591 263.159 181.153C262.915 182.7 262.777 184.295 262.744 185.939L258.252 187.501V172.608C258.252 172.348 258.203 172.12 258.105 171.925C258.008 171.713 257.869 171.591 257.69 171.559C257.528 171.526 257.332 171.607 257.104 171.803C256.877 171.998 256.641 172.348 256.396 172.853C255.908 174.22 255.485 175.644 255.127 177.125C254.964 177.76 254.81 178.435 254.663 179.151C254.517 179.868 254.386 180.608 254.272 181.373C254.175 182.122 254.093 182.887 254.028 183.668C253.963 184.433 253.939 185.19 253.955 185.939L249.512 187.501V171.095C249.512 170.704 249.422 170.395 249.243 170.167C249.064 169.939 248.828 169.825 248.535 169.825C248.258 169.809 247.949 169.907 247.607 170.118C247.266 170.33 246.932 170.672 246.606 171.144L245.947 170.411C246.322 169.63 246.753 169.028 247.241 168.605C247.746 168.165 248.234 167.848 248.706 167.652C249.243 167.425 249.797 167.294 250.366 167.262C251.082 167.262 251.668 167.376 252.124 167.604C252.596 167.831 252.962 168.133 253.223 168.507C253.499 168.865 253.687 169.28 253.784 169.752C253.898 170.224 253.955 170.704 253.955 171.192V176.344C254.248 174.879 254.688 173.585 255.273 172.462C255.859 171.339 256.47 170.395 257.104 169.63C257.756 168.849 258.39 168.263 259.009 167.872C259.627 167.465 260.124 167.262 260.498 167.262C260.97 167.262 261.353 167.343 261.646 167.506C261.938 167.652 262.166 167.88 262.329 168.189C262.492 168.499 262.598 168.881 262.646 169.337C262.712 169.776 262.744 170.297 262.744 170.899V176.344C263.053 174.879 263.493 173.585 264.062 172.462C264.648 171.339 265.267 170.395 265.918 169.63C266.569 168.849 267.204 168.263 267.822 167.872C268.441 167.465 268.937 167.262 269.312 167.262C270.239 167.262 270.841 167.571 271.118 168.189C271.411 168.792 271.558 169.695 271.558 170.899V182.96C271.558 183.351 271.647 183.66 271.826 183.888C272.005 184.116 272.233 184.238 272.51 184.254C272.786 184.254 273.088 184.148 273.413 183.937C273.755 183.725 274.089 183.383 274.414 182.911L275.098 183.644ZM294.434 181.739C293.864 182.472 293.237 183.155 292.554 183.79C291.886 184.425 291.154 184.978 290.356 185.45C289.575 185.922 288.745 186.297 287.866 186.573C286.987 186.85 286.076 186.988 285.132 186.988C283.927 186.988 282.821 186.777 281.812 186.354C280.802 185.914 279.932 185.32 279.199 184.571C278.467 183.806 277.897 182.911 277.49 181.886C277.083 180.844 276.88 179.729 276.88 178.541C276.88 177.564 277.018 176.604 277.295 175.66C277.572 174.716 277.962 173.829 278.467 172.999C278.971 172.169 279.565 171.404 280.249 170.704C280.949 169.988 281.714 169.378 282.544 168.873C283.374 168.369 284.253 167.978 285.181 167.701C286.108 167.408 287.061 167.262 288.037 167.262C288.721 167.262 289.364 167.343 289.966 167.506C290.584 167.669 291.13 167.929 291.602 168.287C292.074 168.629 292.448 169.077 292.725 169.63C293.001 170.167 293.14 170.81 293.14 171.559C293.14 172.177 292.952 172.828 292.578 173.512C292.22 174.195 291.74 174.879 291.138 175.563C290.552 176.246 289.884 176.922 289.136 177.589C288.387 178.24 287.622 178.85 286.841 179.42C286.076 179.973 285.335 180.462 284.619 180.885C283.903 181.308 283.276 181.633 282.739 181.861C283.341 182.61 284.041 183.22 284.839 183.692C285.636 184.164 286.483 184.4 287.378 184.4C287.948 184.4 288.525 184.295 289.111 184.083C289.697 183.855 290.259 183.57 290.796 183.229C291.349 182.887 291.87 182.512 292.358 182.105C292.863 181.699 293.311 181.316 293.701 180.958L294.434 181.739ZM288.55 172.462C288.55 172.088 288.485 171.73 288.354 171.388C288.241 171.046 288.07 170.753 287.842 170.509C287.614 170.248 287.337 170.045 287.012 169.898C286.702 169.736 286.344 169.654 285.938 169.654C285.205 169.654 284.53 169.915 283.911 170.436C283.293 170.94 282.756 171.567 282.3 172.315C281.86 173.064 281.51 173.862 281.25 174.708C281.006 175.538 280.884 176.271 280.884 176.905C280.884 177.524 280.981 178.159 281.177 178.81C281.372 179.461 281.641 180.087 281.982 180.689C282.633 180.331 283.341 179.835 284.106 179.2C284.871 178.565 285.579 177.874 286.23 177.125C286.898 176.36 287.451 175.571 287.891 174.757C288.33 173.943 288.55 173.178 288.55 172.462ZM318.701 187.355L306.299 153.712L311.255 151.49L320.459 177.955L323.95 168.458L319.36 156.007L324.316 153.858L332.91 179.2C333.822 177.182 334.717 175.18 335.596 173.194C336.491 171.192 337.378 169.174 338.257 167.14C338.68 166.147 339.054 165.146 339.38 164.137C339.705 163.111 339.868 162.029 339.868 160.89C339.868 160.011 339.754 159.181 339.526 158.399C339.315 157.618 339.014 156.878 338.623 156.178C338.232 155.462 337.76 154.794 337.207 154.176C336.67 153.541 336.084 152.947 335.449 152.394L339.16 147.804C339.762 148.243 340.308 148.788 340.796 149.439C341.3 150.091 341.732 150.79 342.09 151.539C342.448 152.288 342.725 153.061 342.92 153.858C343.115 154.656 343.213 155.421 343.213 156.153C343.213 157.586 343.001 158.977 342.578 160.328C342.155 161.663 341.667 162.989 341.113 164.308C339.437 168.181 337.752 172.022 336.06 175.831C334.367 179.64 332.666 183.481 330.957 187.355L324.707 170.46L318.701 187.355ZM360.254 181.739C359.684 182.472 359.058 183.155 358.374 183.79C357.707 184.425 356.974 184.978 356.177 185.45C355.396 185.922 354.565 186.297 353.687 186.573C352.808 186.85 351.896 186.988 350.952 186.988C349.748 186.988 348.641 186.777 347.632 186.354C346.623 185.914 345.752 185.32 345.02 184.571C344.287 183.806 343.717 182.911 343.311 181.886C342.904 180.844 342.7 179.729 342.7 178.541C342.7 177.564 342.839 176.604 343.115 175.66C343.392 174.716 343.783 173.829 344.287 172.999C344.792 172.169 345.386 171.404 346.069 170.704C346.769 169.988 347.534 169.378 348.364 168.873C349.194 168.369 350.073 167.978 351.001 167.701C351.929 167.408 352.881 167.262 353.857 167.262C354.541 167.262 355.184 167.343 355.786 167.506C356.405 167.669 356.95 167.929 357.422 168.287C357.894 168.629 358.268 169.077 358.545 169.63C358.822 170.167 358.96 170.81 358.96 171.559C358.96 172.177 358.773 172.828 358.398 173.512C358.04 174.195 357.56 174.879 356.958 175.563C356.372 176.246 355.705 176.922 354.956 177.589C354.207 178.24 353.442 178.85 352.661 179.42C351.896 179.973 351.156 180.462 350.439 180.885C349.723 181.308 349.097 181.633 348.56 181.861C349.162 182.61 349.862 183.22 350.659 183.692C351.457 184.164 352.303 184.4 353.198 184.4C353.768 184.4 354.346 184.295 354.932 184.083C355.518 183.855 356.079 183.57 356.616 183.229C357.17 182.887 357.69 182.512 358.179 182.105C358.683 181.699 359.131 181.316 359.521 180.958L360.254 181.739ZM354.37 172.462C354.37 172.088 354.305 171.73 354.175 171.388C354.061 171.046 353.89 170.753 353.662 170.509C353.434 170.248 353.158 170.045 352.832 169.898C352.523 169.736 352.165 169.654 351.758 169.654C351.025 169.654 350.35 169.915 349.731 170.436C349.113 170.94 348.576 171.567 348.12 172.315C347.681 173.064 347.331 173.862 347.07 174.708C346.826 175.538 346.704 176.271 346.704 176.905C346.704 177.524 346.802 178.159 346.997 178.81C347.192 179.461 347.461 180.087 347.803 180.689C348.454 180.331 349.162 179.835 349.927 179.2C350.692 178.565 351.4 177.874 352.051 177.125C352.718 176.36 353.271 175.571 353.711 174.757C354.15 173.943 354.37 173.178 354.37 172.462ZM383.032 183.595C382.837 184.018 382.585 184.417 382.275 184.791C381.966 185.165 381.624 185.499 381.25 185.792C380.876 186.085 380.461 186.321 380.005 186.5C379.565 186.663 379.11 186.744 378.638 186.744C377.352 186.744 376.416 186.394 375.83 185.694C375.26 184.978 374.976 184.01 374.976 182.789V182.35C374.699 182.903 374.382 183.456 374.023 184.01C373.665 184.563 373.25 185.06 372.778 185.499C372.323 185.939 371.802 186.297 371.216 186.573C370.646 186.85 370.003 186.988 369.287 186.988C368.197 186.988 367.236 186.777 366.406 186.354C365.592 185.914 364.909 185.336 364.355 184.62C363.802 183.888 363.379 183.041 363.086 182.081C362.809 181.121 362.671 180.112 362.671 179.054C362.671 177.687 362.882 176.311 363.306 174.928C363.729 173.544 364.347 172.291 365.161 171.168C365.975 170.045 366.976 169.133 368.164 168.434C369.352 167.717 370.711 167.359 372.241 167.359C373.185 167.359 374.097 167.587 374.976 168.043V153.053L379.492 151.49V182.911C379.492 183.237 379.565 183.538 379.712 183.814C379.875 184.075 380.135 184.205 380.493 184.205C380.868 184.205 381.217 184.059 381.543 183.766C381.868 183.456 382.129 183.147 382.324 182.838L383.032 183.595ZM374.976 176.246V171.046C374.601 170.672 374.178 170.362 373.706 170.118C373.25 169.874 372.746 169.752 372.192 169.752C371.232 169.752 370.418 170.012 369.751 170.533C369.084 171.054 368.538 171.705 368.115 172.486C367.692 173.268 367.383 174.114 367.188 175.025C366.992 175.921 366.895 176.759 366.895 177.54C366.895 178.159 366.951 178.858 367.065 179.64C367.196 180.405 367.407 181.129 367.7 181.813C368.009 182.48 368.408 183.05 368.896 183.522C369.401 183.977 370.028 184.205 370.776 184.205C371.379 184.205 371.899 184.075 372.339 183.814C372.795 183.538 373.177 183.188 373.486 182.765C373.796 182.325 374.048 181.829 374.243 181.275C374.438 180.706 374.585 180.128 374.683 179.542C374.797 178.956 374.87 178.378 374.902 177.809C374.951 177.223 374.976 176.702 374.976 176.246ZM405.298 183.595C405.103 184.018 404.85 184.417 404.541 184.791C404.232 185.165 403.89 185.499 403.516 185.792C403.141 186.085 402.726 186.321 402.271 186.5C401.831 186.663 401.375 186.744 400.903 186.744C399.618 186.744 398.682 186.394 398.096 185.694C397.526 184.978 397.241 184.01 397.241 182.789V182.35C396.965 182.903 396.647 183.456 396.289 184.01C395.931 184.563 395.516 185.06 395.044 185.499C394.588 185.939 394.067 186.297 393.481 186.573C392.912 186.85 392.269 186.988 391.553 186.988C390.462 186.988 389.502 186.777 388.672 186.354C387.858 185.914 387.174 185.336 386.621 184.62C386.068 183.888 385.645 183.041 385.352 182.081C385.075 181.121 384.937 180.112 384.937 179.054C384.937 177.687 385.148 176.311 385.571 174.928C385.994 173.544 386.613 172.291 387.427 171.168C388.241 170.045 389.242 169.133 390.43 168.434C391.618 167.717 392.977 167.359 394.507 167.359C395.451 167.359 396.362 167.587 397.241 168.043V153.053L401.758 151.49V182.911C401.758 183.237 401.831 183.538 401.978 183.814C402.14 184.075 402.401 184.205 402.759 184.205C403.133 184.205 403.483 184.059 403.809 183.766C404.134 183.456 404.395 183.147 404.59 182.838L405.298 183.595ZM397.241 176.246V171.046C396.867 170.672 396.444 170.362 395.972 170.118C395.516 169.874 395.011 169.752 394.458 169.752C393.498 169.752 392.684 170.012 392.017 170.533C391.349 171.054 390.804 171.705 390.381 172.486C389.958 173.268 389.648 174.114 389.453 175.025C389.258 175.921 389.16 176.759 389.16 177.54C389.16 178.159 389.217 178.858 389.331 179.64C389.461 180.405 389.673 181.129 389.966 181.813C390.275 182.48 390.674 183.05 391.162 183.522C391.667 183.977 392.293 184.205 393.042 184.205C393.644 184.205 394.165 184.075 394.604 183.814C395.06 183.538 395.443 183.188 395.752 182.765C396.061 182.325 396.313 181.829 396.509 181.275C396.704 180.706 396.851 180.128 396.948 179.542C397.062 178.956 397.135 178.378 397.168 177.809C397.217 177.223 397.241 176.702 397.241 176.246ZM413.257 154.64L411.963 163.551L409.57 164.308L408.105 156.397L413.257 154.64ZM416.626 183.644C416.252 184.441 415.812 185.051 415.308 185.475C414.819 185.898 414.347 186.207 413.892 186.402C413.354 186.63 412.809 186.76 412.256 186.793C411.54 186.793 410.946 186.679 410.474 186.451C410.002 186.223 409.627 185.922 409.351 185.548C409.074 185.174 408.879 184.75 408.765 184.278C408.667 183.806 408.618 183.326 408.618 182.838V169.142L413.11 167.604V182.96C413.11 183.351 413.2 183.66 413.379 183.888C413.558 184.116 413.786 184.238 414.062 184.254C414.355 184.254 414.665 184.148 414.99 183.937C415.332 183.725 415.658 183.383 415.967 182.911L416.626 183.644ZM439.844 183.644C439.648 184.067 439.396 184.466 439.087 184.84C438.778 185.214 438.428 185.548 438.037 185.841C437.663 186.134 437.256 186.362 436.816 186.524C436.377 186.703 435.921 186.793 435.449 186.793C434.163 186.793 433.228 186.443 432.642 185.743C432.072 185.027 431.787 184.059 431.787 182.838V172.901C431.787 172.787 431.779 172.657 431.763 172.511C431.763 172.348 431.738 172.202 431.689 172.071C431.641 171.925 431.576 171.803 431.494 171.705C431.413 171.607 431.299 171.559 431.152 171.559C430.697 171.559 430.233 171.835 429.761 172.389C429.305 172.942 428.857 173.658 428.418 174.537C427.995 175.416 427.596 176.401 427.222 177.491C426.864 178.582 426.546 179.664 426.27 180.738C425.993 181.796 425.773 182.789 425.61 183.717C425.464 184.645 425.391 185.385 425.391 185.939L420.947 187.501V171.095C420.947 170.769 420.866 170.476 420.703 170.216C420.54 169.939 420.288 169.801 419.946 169.801C419.539 169.801 419.165 169.955 418.823 170.265C418.498 170.558 418.237 170.851 418.042 171.144L417.383 170.411C417.578 170.004 417.822 169.614 418.115 169.239C418.424 168.849 418.766 168.507 419.141 168.214C419.531 167.921 419.946 167.693 420.386 167.53C420.841 167.351 421.313 167.262 421.802 167.262C423.071 167.262 423.983 167.62 424.536 168.336C425.106 169.036 425.391 169.988 425.391 171.192V179.151C425.537 178.484 425.732 177.727 425.977 176.881C426.237 176.018 426.546 175.147 426.904 174.269C427.262 173.39 427.661 172.535 428.101 171.705C428.556 170.859 429.053 170.11 429.59 169.459C430.127 168.792 430.713 168.263 431.348 167.872C431.982 167.465 432.666 167.262 433.398 167.262C434.163 167.262 434.741 167.433 435.132 167.774C435.522 168.1 435.799 168.523 435.962 169.044C436.141 169.549 436.239 170.11 436.255 170.729C436.271 171.347 436.279 171.941 436.279 172.511V182.96C436.279 183.286 436.361 183.587 436.523 183.863C436.686 184.124 436.938 184.254 437.28 184.254C437.655 184.254 438.005 184.107 438.33 183.814C438.672 183.505 438.94 183.204 439.136 182.911L439.844 183.644ZM458.276 184.693C458.276 185.654 458.146 186.63 457.886 187.623C457.625 188.632 457.251 189.617 456.763 190.577C456.291 191.537 455.721 192.441 455.054 193.287C454.386 194.15 453.638 194.898 452.808 195.533C451.994 196.168 451.107 196.673 450.146 197.047C449.202 197.421 448.218 197.608 447.192 197.608C446.541 197.608 445.915 197.503 445.312 197.291C444.727 197.079 444.198 196.746 443.726 196.29L446.948 193.238C447.29 193.694 447.689 194.06 448.145 194.337C448.6 194.614 449.113 194.752 449.683 194.752C450.513 194.752 451.188 194.589 451.709 194.264C452.23 193.954 452.645 193.531 452.954 192.994C453.263 192.473 453.483 191.871 453.613 191.188C453.743 190.52 453.825 189.828 453.857 189.112C453.89 188.396 453.89 187.696 453.857 187.013C453.841 186.329 453.833 185.711 453.833 185.157V182.35C453.54 182.903 453.206 183.456 452.832 184.01C452.474 184.563 452.059 185.06 451.587 185.499C451.131 185.939 450.618 186.297 450.049 186.573C449.479 186.85 448.844 186.988 448.145 186.988C447.087 186.988 446.151 186.785 445.337 186.378C444.523 185.971 443.84 185.426 443.286 184.742C442.733 184.042 442.318 183.229 442.041 182.301C441.764 181.373 441.626 180.388 441.626 179.347C441.626 178.403 441.74 177.451 441.968 176.49C442.196 175.514 442.513 174.578 442.92 173.683C443.343 172.787 443.856 171.949 444.458 171.168C445.076 170.387 445.76 169.711 446.509 169.142C447.274 168.556 448.112 168.1 449.023 167.774C449.935 167.433 450.903 167.262 451.929 167.262C452.547 167.262 453.166 167.335 453.784 167.481C454.403 167.628 454.989 167.856 455.542 168.165C456.112 168.458 456.624 168.824 457.08 169.264C457.552 169.703 457.935 170.216 458.228 170.802L454.59 172.34C454.395 172.031 454.167 171.721 453.906 171.412C453.662 171.087 453.385 170.794 453.076 170.533C452.783 170.273 452.458 170.061 452.1 169.898C451.758 169.736 451.4 169.654 451.025 169.654C450.472 169.654 449.951 169.785 449.463 170.045C448.991 170.305 448.551 170.647 448.145 171.07C447.754 171.494 447.404 171.982 447.095 172.535C446.785 173.072 446.525 173.634 446.313 174.22C446.102 174.806 445.939 175.383 445.825 175.953C445.728 176.523 445.679 177.036 445.679 177.491C445.679 178.11 445.736 178.81 445.85 179.591C445.98 180.356 446.2 181.08 446.509 181.764C446.818 182.447 447.225 183.025 447.729 183.497C448.234 183.969 448.869 184.205 449.634 184.205C450.236 184.205 450.757 184.075 451.196 183.814C451.636 183.538 452.01 183.188 452.319 182.765C452.629 182.325 452.881 181.829 453.076 181.275C453.288 180.706 453.442 180.128 453.54 179.542C453.654 178.956 453.727 178.378 453.76 177.809C453.809 177.223 453.833 176.702 453.833 176.246V174.562L458.276 172.999V184.693ZM481.079 185.45L476.025 187.257V152.296L481.079 150.489V185.45ZM507.568 183.644C507.373 184.067 507.121 184.466 506.812 184.84C506.502 185.214 506.152 185.548 505.762 185.841C505.387 186.134 504.98 186.362 504.541 186.524C504.102 186.703 503.646 186.793 503.174 186.793C501.888 186.793 500.952 186.443 500.366 185.743C499.797 185.027 499.512 184.059 499.512 182.838V172.901C499.512 172.787 499.504 172.657 499.487 172.511C499.487 172.348 499.463 172.202 499.414 172.071C499.365 171.925 499.3 171.803 499.219 171.705C499.137 171.607 499.023 171.559 498.877 171.559C498.421 171.559 497.957 171.835 497.485 172.389C497.03 172.942 496.582 173.658 496.143 174.537C495.719 175.416 495.321 176.401 494.946 177.491C494.588 178.582 494.271 179.664 493.994 180.738C493.717 181.796 493.498 182.789 493.335 183.717C493.188 184.645 493.115 185.385 493.115 185.939L488.672 187.501V171.095C488.672 170.769 488.59 170.476 488.428 170.216C488.265 169.939 488.013 169.801 487.671 169.801C487.264 169.801 486.89 169.955 486.548 170.265C486.222 170.558 485.962 170.851 485.767 171.144L485.107 170.411C485.303 170.004 485.547 169.614 485.84 169.239C486.149 168.849 486.491 168.507 486.865 168.214C487.256 167.921 487.671 167.693 488.11 167.53C488.566 167.351 489.038 167.262 489.526 167.262C490.796 167.262 491.707 167.62 492.261 168.336C492.83 169.036 493.115 169.988 493.115 171.192V179.151C493.262 178.484 493.457 177.727 493.701 176.881C493.962 176.018 494.271 175.147 494.629 174.269C494.987 173.39 495.386 172.535 495.825 171.705C496.281 170.859 496.777 170.11 497.314 169.459C497.852 168.792 498.438 168.263 499.072 167.872C499.707 167.465 500.391 167.262 501.123 167.262C501.888 167.262 502.466 167.433 502.856 167.774C503.247 168.1 503.524 168.523 503.687 169.044C503.866 169.549 503.963 170.11 503.979 170.729C503.996 171.347 504.004 171.941 504.004 172.511V182.96C504.004 183.286 504.085 183.587 504.248 183.863C504.411 184.124 504.663 184.254 505.005 184.254C505.379 184.254 505.729 184.107 506.055 183.814C506.396 183.505 506.665 183.204 506.86 182.911L507.568 183.644ZM518.359 187.159C518.164 187.159 517.961 187.11 517.749 187.013C517.554 186.931 517.407 186.793 517.31 186.598L511.108 172.657C511.027 172.511 510.929 172.348 510.815 172.169C510.718 171.974 510.596 171.795 510.449 171.632C510.303 171.469 510.14 171.331 509.961 171.217C509.782 171.103 509.595 171.046 509.399 171.046C509.123 171.046 508.887 171.152 508.691 171.363C508.496 171.559 508.317 171.77 508.154 171.998L507.666 171.339C507.829 170.851 508.057 170.387 508.35 169.947C508.659 169.492 509.017 169.093 509.424 168.751C509.831 168.409 510.278 168.133 510.767 167.921C511.255 167.709 511.768 167.604 512.305 167.604C512.712 167.604 513.078 167.742 513.403 168.019C513.729 168.279 514.014 168.605 514.258 168.995C514.518 169.386 514.738 169.793 514.917 170.216C515.112 170.639 515.275 170.997 515.405 171.29C516.187 173.162 516.96 175.017 517.725 176.856C518.506 178.696 519.303 180.527 520.117 182.35L523.169 176.1C523.299 175.872 523.389 175.563 523.438 175.172C523.486 174.781 523.511 174.456 523.511 174.195C523.511 173.235 523.267 172.405 522.778 171.705C522.29 170.989 521.615 170.419 520.752 169.996L523.56 166.139C524.471 166.594 525.138 167.213 525.562 167.994C526.001 168.759 526.221 169.646 526.221 170.655C526.221 171.16 526.156 171.721 526.025 172.34C525.911 172.942 525.741 173.479 525.513 173.951L519.312 186.647C519.067 186.988 518.75 187.159 518.359 187.159ZM535.034 154.64L533.74 163.551L531.348 164.308L529.883 156.397L535.034 154.64ZM538.403 183.644C538.029 184.441 537.59 185.051 537.085 185.475C536.597 185.898 536.125 186.207 535.669 186.402C535.132 186.63 534.587 186.76 534.033 186.793C533.317 186.793 532.723 186.679 532.251 186.451C531.779 186.223 531.405 185.922 531.128 185.548C530.851 185.174 530.656 184.75 530.542 184.278C530.444 183.806 530.396 183.326 530.396 182.838V169.142L534.888 167.604V182.96C534.888 183.351 534.977 183.66 535.156 183.888C535.335 184.116 535.563 184.238 535.84 184.254C536.133 184.254 536.442 184.148 536.768 183.937C537.109 183.725 537.435 183.383 537.744 182.911L538.403 183.644ZM550.317 183.644C549.943 184.441 549.512 185.051 549.023 185.475C548.535 185.898 548.055 186.207 547.583 186.402C547.046 186.63 546.493 186.76 545.923 186.793C545.19 186.793 544.588 186.679 544.116 186.451C543.66 186.223 543.294 185.922 543.018 185.548C542.757 185.174 542.57 184.75 542.456 184.278C542.358 183.806 542.31 183.326 542.31 182.838V170.045H539.722L540.771 167.604H542.31V158.961L546.777 157.398V167.604H551.416L550.415 170.045H546.777V182.96C546.777 183.351 546.867 183.66 547.046 183.888C547.225 184.116 547.453 184.238 547.729 184.254C548.006 184.254 548.315 184.148 548.657 183.937C548.999 183.725 549.333 183.383 549.658 182.911L550.317 183.644ZM573.706 183.595C573.511 184.018 573.267 184.417 572.974 184.791C572.681 185.165 572.339 185.499 571.948 185.792C571.574 186.085 571.159 186.321 570.703 186.5C570.264 186.663 569.8 186.744 569.312 186.744C568.026 186.744 567.098 186.394 566.528 185.694C565.975 184.978 565.698 184.01 565.698 182.789V182.35C565.405 182.903 565.072 183.456 564.697 184.01C564.339 184.563 563.924 185.06 563.452 185.499C562.996 185.939 562.484 186.297 561.914 186.573C561.344 186.85 560.71 186.988 560.01 186.988C558.952 186.988 558.016 186.785 557.202 186.378C556.388 185.971 555.705 185.426 555.151 184.742C554.598 184.042 554.183 183.229 553.906 182.301C553.63 181.373 553.491 180.388 553.491 179.347C553.491 177.931 553.735 176.523 554.224 175.123C554.728 173.707 555.428 172.446 556.323 171.339C557.235 170.232 558.317 169.337 559.57 168.653C560.84 167.953 562.248 167.604 563.794 167.604C564.412 167.604 565.031 167.661 565.649 167.774C566.268 167.888 566.854 168.076 567.407 168.336C567.977 168.58 568.49 168.906 568.945 169.313C569.417 169.719 569.8 170.216 570.093 170.802L566.455 172.34C566.26 172.031 566.032 171.738 565.771 171.461C565.527 171.168 565.251 170.916 564.941 170.704C564.648 170.493 564.331 170.322 563.989 170.191C563.647 170.061 563.289 169.996 562.915 169.996C562.069 169.996 561.312 170.257 560.645 170.777C559.993 171.298 559.432 171.941 558.96 172.706C558.504 173.471 558.154 174.285 557.91 175.147C557.666 176.01 557.544 176.791 557.544 177.491C557.544 178.11 557.601 178.81 557.715 179.591C557.845 180.356 558.065 181.08 558.374 181.764C558.683 182.447 559.09 183.025 559.595 183.497C560.099 183.969 560.734 184.205 561.499 184.205C562.101 184.205 562.622 184.075 563.062 183.814C563.501 183.538 563.875 183.188 564.185 182.765C564.494 182.325 564.746 181.829 564.941 181.275C565.153 180.706 565.308 180.128 565.405 179.542C565.519 178.956 565.592 178.378 565.625 177.809C565.674 177.223 565.698 176.702 565.698 176.246V174.562L570.142 172.999V182.911C570.142 183.237 570.223 183.538 570.386 183.814C570.549 184.075 570.801 184.205 571.143 184.205C571.549 184.205 571.916 184.059 572.241 183.766C572.583 183.456 572.852 183.147 573.047 182.838L573.706 183.595ZM585.327 183.644C584.953 184.441 584.521 185.051 584.033 185.475C583.545 185.898 583.065 186.207 582.593 186.402C582.056 186.63 581.502 186.76 580.933 186.793C580.2 186.793 579.598 186.679 579.126 186.451C578.67 186.223 578.304 185.922 578.027 185.548C577.767 185.174 577.58 184.75 577.466 184.278C577.368 183.806 577.319 183.326 577.319 182.838V170.045H574.731L575.781 167.604H577.319V158.961L581.787 157.398V167.604H586.426L585.425 170.045H581.787V182.96C581.787 183.351 581.877 183.66 582.056 183.888C582.235 184.116 582.463 184.238 582.739 184.254C583.016 184.254 583.325 184.148 583.667 183.937C584.009 183.725 584.342 183.383 584.668 182.911L585.327 183.644ZM594.556 154.64L593.262 163.551L590.869 164.308L589.404 156.397L594.556 154.64ZM597.925 183.644C597.55 184.441 597.111 185.051 596.606 185.475C596.118 185.898 595.646 186.207 595.19 186.402C594.653 186.63 594.108 186.76 593.555 186.793C592.839 186.793 592.244 186.679 591.772 186.451C591.3 186.223 590.926 185.922 590.649 185.548C590.373 185.174 590.177 184.75 590.063 184.278C589.966 183.806 589.917 183.326 589.917 182.838V169.142L594.409 167.604V182.96C594.409 183.351 594.499 183.66 594.678 183.888C594.857 184.116 595.085 184.238 595.361 184.254C595.654 184.254 595.964 184.148 596.289 183.937C596.631 183.725 596.956 183.383 597.266 182.911L597.925 183.644ZM608.398 187.062C607.194 187.062 606.063 186.85 605.005 186.427C603.963 185.987 603.052 185.385 602.271 184.62C601.506 183.855 600.895 182.96 600.439 181.935C600 180.893 599.78 179.762 599.78 178.541C599.78 177.158 600.008 175.864 600.464 174.659C600.92 173.439 601.546 172.34 602.344 171.363C603.158 170.387 604.11 169.54 605.2 168.824C606.307 168.108 607.503 167.547 608.789 167.14L609.497 167.994C608.765 168.531 608.081 169.15 607.446 169.85C606.812 170.533 606.258 171.282 605.786 172.096C605.314 172.893 604.94 173.74 604.663 174.635C604.386 175.514 604.248 176.417 604.248 177.345C604.248 178.126 604.362 178.948 604.59 179.811C604.818 180.673 605.16 181.463 605.615 182.179C606.071 182.895 606.641 183.489 607.324 183.961C608.024 184.417 608.83 184.645 609.741 184.645C610.555 184.645 611.255 184.498 611.841 184.205C612.443 183.912 612.939 183.513 613.33 183.009C613.721 182.504 614.014 181.918 614.209 181.251C614.404 180.567 614.502 179.851 614.502 179.103C614.502 178.224 614.331 177.328 613.989 176.417C613.647 175.489 613.175 174.635 612.573 173.854C611.987 173.072 611.296 172.421 610.498 171.9C609.701 171.38 608.846 171.078 607.935 170.997C608.504 170.346 609.131 169.744 609.814 169.19C610.498 168.637 611.19 168.108 611.89 167.604C612.834 167.913 613.664 168.369 614.38 168.971C615.112 169.573 615.723 170.265 616.211 171.046C616.715 171.827 617.098 172.682 617.358 173.609C617.619 174.521 617.749 175.449 617.749 176.393C617.749 177.678 617.521 178.956 617.065 180.226C616.626 181.495 615.991 182.643 615.161 183.668C614.347 184.677 613.363 185.499 612.207 186.134C611.068 186.752 609.798 187.062 608.398 187.062ZM642.041 183.644C641.846 184.067 641.593 184.466 641.284 184.84C640.975 185.214 640.625 185.548 640.234 185.841C639.86 186.134 639.453 186.362 639.014 186.524C638.574 186.703 638.118 186.793 637.646 186.793C636.361 186.793 635.425 186.443 634.839 185.743C634.269 185.027 633.984 184.059 633.984 182.838V172.901C633.984 172.787 633.976 172.657 633.96 172.511C633.96 172.348 633.936 172.202 633.887 172.071C633.838 171.925 633.773 171.803 633.691 171.705C633.61 171.607 633.496 171.559 633.35 171.559C632.894 171.559 632.43 171.835 631.958 172.389C631.502 172.942 631.055 173.658 630.615 174.537C630.192 175.416 629.793 176.401 629.419 177.491C629.061 178.582 628.743 179.664 628.467 180.738C628.19 181.796 627.97 182.789 627.808 183.717C627.661 184.645 627.588 185.385 627.588 185.939L623.145 187.501V171.095C623.145 170.769 623.063 170.476 622.9 170.216C622.738 169.939 622.485 169.801 622.144 169.801C621.737 169.801 621.362 169.955 621.021 170.265C620.695 170.558 620.435 170.851 620.239 171.144L619.58 170.411C619.775 170.004 620.02 169.614 620.312 169.239C620.622 168.849 620.964 168.507 621.338 168.214C621.729 167.921 622.144 167.693 622.583 167.53C623.039 167.351 623.511 167.262 623.999 167.262C625.269 167.262 626.18 167.62 626.733 168.336C627.303 169.036 627.588 169.988 627.588 171.192V179.151C627.734 178.484 627.93 177.727 628.174 176.881C628.434 176.018 628.743 175.147 629.102 174.269C629.46 173.39 629.858 172.535 630.298 171.705C630.754 170.859 631.25 170.11 631.787 169.459C632.324 168.792 632.91 168.263 633.545 167.872C634.18 167.465 634.863 167.262 635.596 167.262C636.361 167.262 636.938 167.433 637.329 167.774C637.72 168.1 637.996 168.523 638.159 169.044C638.338 169.549 638.436 170.11 638.452 170.729C638.468 171.347 638.477 171.941 638.477 172.511V182.96C638.477 183.286 638.558 183.587 638.721 183.863C638.883 184.124 639.136 184.254 639.478 184.254C639.852 184.254 640.202 184.107 640.527 183.814C640.869 183.505 641.138 183.204 641.333 182.911L642.041 183.644ZM681.47 157.447C681.47 158.684 681.226 159.913 680.737 161.134C680.249 162.355 679.59 163.486 678.76 164.527C677.946 165.569 677.002 166.48 675.928 167.262C674.854 168.043 673.739 168.605 672.583 168.946L672.07 168.092C672.754 167.75 673.381 167.311 673.95 166.773C674.52 166.236 675.008 165.634 675.415 164.967C675.822 164.283 676.131 163.567 676.343 162.818C676.571 162.053 676.685 161.28 676.685 160.499C676.685 159.604 676.554 158.758 676.294 157.96C676.034 157.162 675.651 156.471 675.146 155.885C674.642 155.283 674.015 154.811 673.267 154.469C672.534 154.127 671.688 153.956 670.728 153.956C669.556 153.956 668.481 154.184 667.505 154.64C666.528 155.095 665.649 155.714 664.868 156.495C664.087 157.26 663.403 158.147 662.817 159.156C662.248 160.149 661.768 161.199 661.377 162.306C661.003 163.396 660.718 164.503 660.522 165.626C660.327 166.749 660.229 167.807 660.229 168.8C660.229 169.809 660.335 170.851 660.547 171.925C660.758 172.999 661.068 174.057 661.475 175.099C661.882 176.14 662.386 177.125 662.988 178.053C663.59 178.98 664.282 179.794 665.063 180.494C665.861 181.194 666.74 181.756 667.7 182.179C668.677 182.586 669.735 182.789 670.874 182.789C671.655 182.789 672.412 182.683 673.145 182.472C673.893 182.26 674.609 181.975 675.293 181.617C675.977 181.259 676.619 180.836 677.222 180.348C677.84 179.859 678.41 179.33 678.931 178.761L679.736 179.542C679.02 180.486 678.166 181.397 677.173 182.276C676.196 183.139 675.138 183.912 673.999 184.596C672.86 185.263 671.663 185.8 670.41 186.207C669.173 186.598 667.944 186.793 666.724 186.793C665.535 186.793 664.412 186.59 663.354 186.183C662.313 185.759 661.353 185.198 660.474 184.498C659.595 183.782 658.805 182.952 658.105 182.008C657.422 181.048 656.836 180.03 656.348 178.956C655.876 177.882 655.509 176.775 655.249 175.636C655.005 174.496 654.883 173.382 654.883 172.291C654.883 170.712 655.143 169.093 655.664 167.433C656.201 165.756 656.934 164.137 657.861 162.574C658.789 160.995 659.88 159.506 661.133 158.106C662.402 156.707 663.761 155.486 665.21 154.444C666.675 153.403 668.197 152.581 669.775 151.979C671.37 151.36 672.957 151.051 674.536 151.051C675.513 151.051 676.424 151.197 677.271 151.49C678.117 151.767 678.849 152.174 679.468 152.711C680.086 153.248 680.575 153.915 680.933 154.713C681.291 155.51 681.47 156.422 681.47 157.447ZM703.54 183.595C703.345 184.018 703.101 184.417 702.808 184.791C702.515 185.165 702.173 185.499 701.782 185.792C701.408 186.085 700.993 186.321 700.537 186.5C700.098 186.663 699.634 186.744 699.146 186.744C697.86 186.744 696.932 186.394 696.362 185.694C695.809 184.978 695.532 184.01 695.532 182.789V182.35C695.239 182.903 694.906 183.456 694.531 184.01C694.173 184.563 693.758 185.06 693.286 185.499C692.83 185.939 692.318 186.297 691.748 186.573C691.178 186.85 690.544 186.988 689.844 186.988C688.786 186.988 687.85 186.785 687.036 186.378C686.222 185.971 685.539 185.426 684.985 184.742C684.432 184.042 684.017 183.229 683.74 182.301C683.464 181.373 683.325 180.388 683.325 179.347C683.325 177.931 683.569 176.523 684.058 175.123C684.562 173.707 685.262 172.446 686.157 171.339C687.069 170.232 688.151 169.337 689.404 168.653C690.674 167.953 692.082 167.604 693.628 167.604C694.246 167.604 694.865 167.661 695.483 167.774C696.102 167.888 696.688 168.076 697.241 168.336C697.811 168.58 698.324 168.906 698.779 169.313C699.251 169.719 699.634 170.216 699.927 170.802L696.289 172.34C696.094 172.031 695.866 171.738 695.605 171.461C695.361 171.168 695.085 170.916 694.775 170.704C694.482 170.493 694.165 170.322 693.823 170.191C693.481 170.061 693.123 169.996 692.749 169.996C691.903 169.996 691.146 170.257 690.479 170.777C689.827 171.298 689.266 171.941 688.794 172.706C688.338 173.471 687.988 174.285 687.744 175.147C687.5 176.01 687.378 176.791 687.378 177.491C687.378 178.11 687.435 178.81 687.549 179.591C687.679 180.356 687.899 181.08 688.208 181.764C688.517 182.447 688.924 183.025 689.429 183.497C689.933 183.969 690.568 184.205 691.333 184.205C691.935 184.205 692.456 184.075 692.896 183.814C693.335 183.538 693.709 183.188 694.019 182.765C694.328 182.325 694.58 181.829 694.775 181.275C694.987 180.706 695.142 180.128 695.239 179.542C695.353 178.956 695.426 178.378 695.459 177.809C695.508 177.223 695.532 176.702 695.532 176.246V174.562L699.976 172.999V182.911C699.976 183.237 700.057 183.538 700.22 183.814C700.382 184.075 700.635 184.205 700.977 184.205C701.383 184.205 701.75 184.059 702.075 183.766C702.417 183.456 702.686 183.147 702.881 182.838L703.54 183.595ZM719.556 183.839C719.263 184.295 718.905 184.71 718.481 185.084C718.058 185.442 717.594 185.751 717.09 186.012C716.585 186.272 716.056 186.476 715.503 186.622C714.95 186.769 714.404 186.842 713.867 186.842C713.151 186.842 712.533 186.712 712.012 186.451C711.507 186.175 711.092 185.816 710.767 185.377C710.441 184.938 710.197 184.425 710.034 183.839C709.888 183.253 709.814 182.643 709.814 182.008C709.814 181.178 709.937 180.291 710.181 179.347C710.441 178.386 710.783 177.442 711.206 176.515C711.646 175.587 712.142 174.724 712.695 173.927C713.249 173.129 713.835 172.47 714.453 171.949C713.883 172.324 713.257 172.617 712.573 172.828C711.906 173.04 711.222 173.146 710.522 173.146C710.018 173.146 709.578 173.105 709.204 173.023C708.83 172.942 708.415 172.787 707.959 172.56L705.42 177.857L704.37 177.442L707.007 172.047C706.73 171.852 706.429 171.607 706.104 171.314C705.794 171.005 705.566 170.704 705.42 170.411L708.813 166.603C708.96 167.042 709.163 167.49 709.424 167.945C709.684 168.385 709.985 168.784 710.327 169.142C710.685 169.483 711.076 169.768 711.499 169.996C711.938 170.224 712.41 170.338 712.915 170.338C713.778 170.338 714.616 170.183 715.43 169.874C716.243 169.549 717 169.158 717.7 168.702L718.359 169.361C717.741 169.931 717.114 170.566 716.479 171.266C715.861 171.949 715.299 172.682 714.795 173.463C714.29 174.244 713.883 175.066 713.574 175.929C713.265 176.791 713.11 177.662 713.11 178.541C713.11 179.046 713.175 179.615 713.306 180.25C713.452 180.869 713.672 181.463 713.965 182.032C714.258 182.586 714.624 183.058 715.063 183.448C715.503 183.823 716.032 184.01 716.65 184.01C717.074 184.01 717.48 183.937 717.871 183.79C718.278 183.627 718.644 183.432 718.97 183.204L719.556 183.839ZM742.31 183.595C742.114 184.018 741.862 184.417 741.553 184.791C741.243 185.165 740.902 185.499 740.527 185.792C740.153 186.085 739.738 186.321 739.282 186.5C738.843 186.663 738.387 186.744 737.915 186.744C736.629 186.744 735.693 186.394 735.107 185.694C734.538 184.978 734.253 184.01 734.253 182.789V182.35C733.976 182.903 733.659 183.456 733.301 184.01C732.943 184.563 732.528 185.06 732.056 185.499C731.6 185.939 731.079 186.297 730.493 186.573C729.924 186.85 729.281 186.988 728.564 186.988C727.474 186.988 726.514 186.777 725.684 186.354C724.87 185.914 724.186 185.336 723.633 184.62C723.079 183.888 722.656 183.041 722.363 182.081C722.087 181.121 721.948 180.112 721.948 179.054C721.948 177.687 722.16 176.311 722.583 174.928C723.006 173.544 723.625 172.291 724.438 171.168C725.252 170.045 726.253 169.133 727.441 168.434C728.63 167.717 729.989 167.359 731.519 167.359C732.463 167.359 733.374 167.587 734.253 168.043V153.053L738.77 151.49V182.911C738.77 183.237 738.843 183.538 738.989 183.814C739.152 184.075 739.412 184.205 739.771 184.205C740.145 184.205 740.495 184.059 740.82 183.766C741.146 183.456 741.406 183.147 741.602 182.838L742.31 183.595ZM734.253 176.246V171.046C733.879 170.672 733.455 170.362 732.983 170.118C732.528 169.874 732.023 169.752 731.47 169.752C730.509 169.752 729.696 170.012 729.028 170.533C728.361 171.054 727.816 171.705 727.393 172.486C726.969 173.268 726.66 174.114 726.465 175.025C726.27 175.921 726.172 176.759 726.172 177.54C726.172 178.159 726.229 178.858 726.343 179.64C726.473 180.405 726.685 181.129 726.978 181.813C727.287 182.48 727.686 183.05 728.174 183.522C728.678 183.977 729.305 184.205 730.054 184.205C730.656 184.205 731.177 184.075 731.616 183.814C732.072 183.538 732.454 183.188 732.764 182.765C733.073 182.325 733.325 181.829 733.521 181.275C733.716 180.706 733.862 180.128 733.96 179.542C734.074 178.956 734.147 178.378 734.18 177.809C734.229 177.223 734.253 176.702 734.253 176.246ZM756.079 179.762C756.079 180.771 755.892 181.715 755.518 182.594C755.143 183.473 754.631 184.238 753.979 184.889C753.345 185.54 752.58 186.052 751.685 186.427C750.806 186.801 749.854 186.988 748.828 186.988C748.389 186.988 747.909 186.948 747.388 186.866C746.883 186.785 746.379 186.663 745.874 186.5C745.369 186.337 744.889 186.134 744.434 185.89C743.994 185.646 743.628 185.353 743.335 185.011L746.216 181.251C746.411 181.56 746.647 181.902 746.924 182.276C747.217 182.634 747.534 182.968 747.876 183.277C748.234 183.587 748.608 183.847 748.999 184.059C749.406 184.254 749.813 184.352 750.22 184.352C750.692 184.352 751.131 184.27 751.538 184.107C751.961 183.945 752.327 183.717 752.637 183.424C752.946 183.115 753.19 182.757 753.369 182.35C753.548 181.943 753.638 181.495 753.638 181.007C753.638 180.356 753.41 179.762 752.954 179.225C752.515 178.671 751.986 178.142 751.367 177.638C750.765 177.117 750.13 176.588 749.463 176.051C748.812 175.497 748.283 174.895 747.876 174.244L745.337 177.955L744.385 177.247L747.314 173.194C747.087 172.722 746.908 172.226 746.777 171.705C746.647 171.184 746.582 170.663 746.582 170.143C746.582 169.703 746.655 169.239 746.802 168.751C746.948 168.263 747.16 167.815 747.437 167.408C747.713 167.001 748.047 166.668 748.438 166.407C748.844 166.131 749.308 165.992 749.829 165.992C750.334 165.992 750.757 166.147 751.099 166.456C751.457 166.765 751.636 167.197 751.636 167.75C751.636 168.043 751.587 168.336 751.489 168.629C751.392 168.922 751.27 169.215 751.123 169.508C750.977 169.801 750.814 170.086 750.635 170.362C750.456 170.623 750.285 170.867 750.122 171.095C750.513 171.648 750.936 172.128 751.392 172.535C751.847 172.942 752.295 173.325 752.734 173.683C753.174 174.041 753.597 174.399 754.004 174.757C754.411 175.115 754.761 175.522 755.054 175.978C755.363 176.433 755.607 176.962 755.786 177.564C755.981 178.167 756.079 178.899 756.079 179.762ZM750.537 168.189C750.537 167.962 750.456 167.791 750.293 167.677C750.146 167.563 749.976 167.506 749.78 167.506C749.504 167.506 749.308 167.604 749.194 167.799C749.08 167.978 749.023 168.181 749.023 168.409C749.023 168.735 749.072 169.052 749.17 169.361C749.284 169.671 749.422 169.964 749.585 170.24C749.65 170.126 749.731 169.98 749.829 169.801C749.943 169.622 750.049 169.435 750.146 169.239C750.26 169.028 750.35 168.832 750.415 168.653C750.496 168.458 750.537 168.303 750.537 168.189Z" fill="white"/>
<defs>
<linearGradient id="paint0_linear" x1="380.817" y1="33.8468" x2="346.841" y2="122.092" gradientUnits="userSpaceOnUse">
<stop stop-color="#FE8BC5"/>
<stop offset="0.489583" stop-color="#FE8BC5" stop-opacity="0.723958"/>
<stop offset="1" stop-color="#FE8BC5" stop-opacity="0"/>
</linearGradient>
<linearGradient id="paint1_linear" x1="424.108" y1="31.6474" x2="431.647" y2="125.907" gradientUnits="userSpaceOnUse">
<stop stop-color="#FE8BC5"/>
<stop offset="0.489583" stop-color="#FE8BC5" stop-opacity="0.723958"/>
<stop offset="1" stop-color="#FE8BC5" stop-opacity="0"/>
</linearGradient>
</defs>
</svg>
